<?xml version="1.0" encoding="utf-8"?>
<!-- Generator: Adobe Illustrator 16.0.0, SVG Export Plug-In . SVG Version: 6.00 Build 0)  -->
<!DOCTYPE svg PUBLIC "-//W3C//DTD SVG 1.1//EN" "http://www.w3.org/Graphics/SVG/1.1/DTD/svg11.dtd">
<svg version="1.1" id="Capa_1" xmlns="http://www.w3.org/2000/svg" xmlns:xlink="http://www.w3.org/1999/xlink" x="0px" y="0px"
	 width="500px" height="500px" viewBox="0 0 500 500" enable-background="new 0 0 500 500" xml:space="preserve">
<g>
	<g>
		<path fill="#FFFFFF" d="M498.648,255.463c-0.752-1.266-1.808-2.322-3.073-3.073h0.527L173.492,56.645
			c-2.718-1.569-6.068-1.569-8.786,0L4.895,141.866c-4.344,2.161-6.115,7.435-3.954,11.779c0.714,1.437,1.809,2.649,3.163,3.508
			l323.049,200.49c1.398,0.866,3.012,1.322,4.657,1.317c1.509-0.005,2.991-0.397,4.305-1.142l159.46-90.317
			C499.748,265.024,501.123,259.635,498.648,255.463z M332.337,340.246L26.595,150.212L168.66,74.216l305.215,185.466
			L332.337,340.246z"/>
	</g>
</g>
<g>
	<g>
		<path fill="#FFFFFF" d="M498.826,298.251c-2.426-4.222-7.815-5.677-12.036-3.251h0.526l-154.892,87.857L13.593,184.916
			c-4.125-2.62-9.592-1.401-12.212,2.724c-2.62,4.125-1.401,9.592,2.724,12.212l323.049,200.489
			c1.398,0.866,3.012,1.323,4.657,1.317c1.509-0.004,2.991-0.397,4.305-1.142l159.46-90.229
			C499.797,307.861,501.252,302.473,498.826,298.251z"/>
	</g>
</g>
<g>
	<g>
		<path fill="#FFFFFF" d="M496.952,340.638c-2.297-2.874-6.144-4.013-9.636-2.851l-155.33,87.856L13.592,227.614
			c-4.125-2.621-9.591-1.401-12.212,2.723c-2.62,4.125-1.401,9.592,2.724,12.212l323.049,200.665
			c1.398,0.866,3.012,1.323,4.657,1.317c1.509-0.004,2.991-0.397,4.305-1.142l159.46-90.404
			C499.365,349.956,499.982,344.428,496.952,340.638z"/>
	</g>
</g>
<g>
	<g>
		<path fill="#FFFFFF" d="M300.568,160.001c-3.037-3.784-8.567-4.391-12.351-1.353c-0.239,0.192-0.47,0.398-0.688,0.614
			l-9.401,8.786c-2.94-2.643-6.256-4.833-9.84-6.501c-4.68-2.204-9.883-3.057-15.023-2.46c-4.539,0.56-8.798,2.492-12.212,5.535
			c-3.533,2.973-5.873,7.123-6.589,11.685c-0.615,4.796-0.104,9.669,1.493,14.233c1.306,3.776,2.832,7.472,4.569,11.07
			l-17.571,15.727c-0.212-0.604-0.388-1.22-0.527-1.845c-0.662-4.231-0.208-8.562,1.318-12.563c0.721-1.884,1.136-3.871,1.23-5.886
			c-0.078-1.955-0.895-3.807-2.284-5.184c-1.576-1.949-3.91-3.132-6.414-3.25c-2.388-0.156-4.735,0.668-6.501,2.284
			c-2.932,2.791-4.875,6.46-5.535,10.455c-0.865,5.261-0.319,10.657,1.582,15.639c1.314,3.735,3.117,7.28,5.359,10.543
			l-10.104,8.786c-3.64,3.209-3.988,8.762-0.779,12.401c1.686,1.911,4.117,2.996,6.665,2.974l-0.176,0.264
			c2.166,0.02,4.262-0.763,5.887-2.196l9.928-8.786c3.3,3.104,6.992,5.763,10.982,7.907c10.152,5.75,22.876,4.141,31.277-3.954
			c2.953-2.575,5.014-6.021,5.887-9.84c0.861-4.31,0.711-8.762-0.439-13.003c-1.586-5.854-3.888-11.489-6.854-16.781v-0.527
			l14.584-13.091c0.427,2.382,0.427,4.822,0,7.204c-0.516,2.662-0.75,5.372-0.702,8.083c0.097,2.139,0.971,4.171,2.46,5.711
			c1.66,2.126,4.09,3.515,6.766,3.866c2.357,0.131,4.669-0.692,6.413-2.285c1.879-1.778,3.192-4.07,3.778-6.589
			c0.662-3.217,0.662-6.536,0-9.752c-0.733-4.149-2.128-8.153-4.13-11.86c-0.907-1.692-1.904-3.334-2.987-4.92l9.576-8.786
			C303,169.315,303.605,163.785,300.568,160.001z M246.589,231.48c-2.291,1.715-5.274,2.207-7.995,1.318
			c-1.753-0.444-3.418-1.188-4.92-2.197l14.848-12.915c0.639,1.624,1.138,3.299,1.494,5.008
			C250.551,226.027,249.239,229.389,246.589,231.48z M255.287,188.43c-0.412-1.344-0.677-2.728-0.791-4.129
			c-0.412-2.39,0.455-4.821,2.284-6.414c2.072-1.748,4.923-2.25,7.468-1.318c0.882,0.302,1.735,0.684,2.548,1.142L255.287,188.43z"
			/>
	</g>
</g>
</svg>
