<?xml version="1.0" encoding="iso-8859-1"?>
<!-- Generator: Adobe Illustrator 19.0.0, SVG Export Plug-In . SVG Version: 6.00 Build 0)  -->
<svg version="1.1" id="Capa_1" xmlns="http://www.w3.org/2000/svg" xmlns:xlink="http://www.w3.org/1999/xlink" x="0px" y="0px"
	 viewBox="0 0 512 512" style="enable-background:new 0 0 512 512;" xml:space="preserve">
<g>
	<g>
		<path d="M392.256,63.281c-5.595,0.389-10.704,2.934-14.385,7.163l-52.02,59.774l-16.175-20.096
			c-7.261-9.015-20.504-10.444-29.524-3.19c-9.019,7.261-10.45,20.505-3.19,29.524l31.903,39.633
			c8.233,10.234,23.655,10.436,32.197,0.62l68.486-78.697C421.758,83.983,410.887,61.997,392.256,63.281z M398.236,88.167
			c-71.335,80.824-67.854,80.759-73.013,80.759c-0.1-0.024-2.749,0.154-4.673-2.238l-31.904-39.635
			c-2.075-2.578-1.666-6.361,0.91-8.434c2.581-2.08,6.367-1.661,8.437,0.911l21.792,27.073c2.928,3.634,8.432,3.743,11.499,0.221
			l57.902-66.533c3.504-4.028,10.141-1.777,10.51,3.524C399.806,85.412,399.288,86.958,398.236,88.167z"/>
	</g>
</g>
<g>
	<g>
		<path d="M460.445,186.422c-4.143,0-7.499,3.357-7.499,7.499v7.975c0,17.667-14.372,32.039-32.039,32.039H286.683
			c2.127-2.794,12.494-9.212,12.603-23.463c0.19-24.117-28.96-35.654-45.832-18.784l-18.376,18.376
			c-1.895-7.098-0.703-1.042-1.07-120.888c0-4.143-3.357-7.499-7.499-7.499c-4.143,0-7.499,3.357-7.499,7.499
			c1.349,112.192-3.237,116.193,4.418,132.539l-46.716,46.716c-0.627-14.416-2.643-26.893-5.844-35.865l-0.074-0.211
			c-3.864-11.28-16.412-21.461-32.065-18.157c-13.343,2.606-22.293,15.174-20.389,28.651c2.577,18.18,2.199,36.399-2.615,53.82
			c-3.079,11.143-9.496,13.411-14.242,31.146c-5.955,22.258,1.5,28.222-6.669,36.389l-13.561,13.561
			c-9.864-2.665-20.849-0.142-28.578,7.585c-11.492,11.493-11.493,30.193,0,41.688l76.238,76.236
			c21.016,21.02,56.55,1.043,49.473-27.9c11.579-10.227,15.578-19.615,29.73-21.764c15.559-2.365,29.905-9.249,41.497-19.91
			c0.765-0.649,1.027-0.917,5.699-5.592c2.928-2.93,2.927-7.678-0.003-10.605c-2.931-2.93-7.679-2.927-10.605,0.003
			c-11.163,11.167-22.077,18.728-38.843,21.276c-19.95,3.032-26.989,16.208-35.082,22.986c-0.259-0.264,3.269,3.268-76.159-76.161
			c5.675-7.167,20.585-14.889,19.362-33.73c-0.441-6.812,0.229-13.603,1.989-20.186c4.182-15.623,10.159-16.36,14.211-31.029
			c5.445-19.71,5.848-39.91,3.008-59.916c-0.788-5.574,2.923-10.774,8.447-11.836c0.051-0.01,0.102-0.021,0.152-0.031
			c8.113-1.729,13.395,4.191,14.814,8.333l0.139,0.395c3.394,9.508,5.279,24.846,5.177,42.079
			c-0.055,9.108,10.977,13.765,17.446,7.302l84.693-84.692c7.322-7.322,19.753-2.847,20.217,7.454
			c0.137,3.053-0.941,6.323-3.412,8.793c-7.407,7.407-55.748,55.748-63.931,63.931c-2.928,2.929-2.929,7.676-0.001,10.604
			c2.929,2.93,7.676,2.932,10.604,0.004c2.264-2.262,5.236-3.45,8.476-3.419c10.451,0.191,15.185,12.814,7.724,20.274l-5.201,5.202
			c-2.929,2.929-2.929,7.677,0.001,10.605c2.93,2.928,7.676,2.929,10.605-0.001c2.207-2.208,5.142-3.424,8.264-3.424
			c3.121,0,6.056,1.216,8.263,3.425c2.208,2.207,3.424,5.142,3.424,8.264s-1.216,6.056-3.424,8.263l-5.526,5.526
			c-1.464,1.465-2.196,3.385-2.196,5.303c0,1.919,0.732,3.839,2.196,5.303c2.93,2.928,7.677,2.928,10.606,0
			c4.565-4.567,11.96-4.568,16.526,0c4.557,4.556,4.557,11.971,0.004,16.524l-17.823,17.814c-2.93,2.929-2.93,7.677-0.001,10.605
			c2.929,2.928,7.677,2.93,10.605,0.001l17.822-17.813c15.456-15.458,6.613-41.774-14.54-45.206
			c0.495-2.046,0.749-4.165,0.749-6.322c0-7.127-2.776-13.828-7.815-18.868c-4.023-4.025-9.108-6.605-14.622-7.482
			c3.39-13.747-4.466-27.192-17.141-31.549l27.174-27.174h149.222c25.936,0,47.038-21.102,47.038-47.038v-7.975
			C467.944,189.78,464.587,186.422,460.445,186.422z M159.995,472.194c9.191,9.184,2.51,24.718-10.238,24.718
			c-3.867,0-7.502-1.506-10.237-4.242l-76.238-76.236c-9.13-9.13-2.576-24.711,10.238-24.711c2.404,0,4.817,0.598,7.034,1.83
			C84.783,395.903,83.724,396.595,159.995,472.194z"/>
	</g>
</g>
<g>
	<g>
		<path d="M420.906,0H266.047c-25.936,0-47.038,21.102-47.038,47.038v7.143c0,4.143,3.357,7.499,7.499,7.499
			c4.143,0,7.499-3.357,7.499-7.499v-7.143c0-17.667,14.372-32.039,32.039-32.039h154.859c17.667,0,32.039,14.372,32.039,32.039
			v111.888c0,4.143,3.357,7.499,7.499,7.499s7.499-3.357,7.499-7.499V47.038C467.944,21.102,446.843,0,420.906,0z"/>
	</g>
</g>
<g>
</g>
<g>
</g>
<g>
</g>
<g>
</g>
<g>
</g>
<g>
</g>
<g>
</g>
<g>
</g>
<g>
</g>
<g>
</g>
<g>
</g>
<g>
</g>
<g>
</g>
<g>
</g>
<g>
</g>
</svg>
