<?xml version="1.0" encoding="iso-8859-1"?>
<!-- Generator: Adobe Illustrator 19.0.0, SVG Export Plug-In . SVG Version: 6.00 Build 0)  -->
<svg version="1.1" id="Capa_1" xmlns="http://www.w3.org/2000/svg" xmlns:xlink="http://www.w3.org/1999/xlink" x="0px" y="0px"
	 viewBox="0 0 512 512" style="enable-background:new 0 0 512 512;" xml:space="preserve">
<g>
	<g>
		<path d="M421.26,300.781l0.002,0.001C421.261,300.781,421.261,300.781,421.26,300.781z"/>
	</g>
</g>
<g>
	<g>
		<polygon points="421.422,300.866 421.428,300.87 421.429,300.87 		"/>
	</g>
</g>
<g>
	<g>
		<path d="M421.35,300.828c0.009,0.005,0.021,0.011,0.028,0.015C421.369,300.838,421.36,300.834,421.35,300.828z"/>
	</g>
</g>
<g>
	<g>
		<path d="M511.683,422.779c-9.419-58.214-10.329-64.281-11.427-69.45c-1.856-8.795-5.772-20.305-19.087-27.506
			c-1.496-0.817-3.457-1.713-4.188-1.987l-40.963-15.261c-10.987-5.804-13.922-7.355-14.588-7.706
			c-0.012-0.006-0.02-0.01-0.031-0.016c0.01,0.005,0.018,0.01,0.024,0.013c-0.008-0.004-0.022-0.011-0.044-0.023
			c0.005,0.003,0.01,0.005,0.015,0.008c-0.027-0.014-0.052-0.028-0.07-0.037c0.009,0.005,0.019,0.01,0.028,0.015
			c-0.023-0.012-0.052-0.028-0.088-0.047c0.009,0.005,0.027,0.015,0.049,0.026c-0.05-0.026-0.063-0.033-0.05-0.027
			c-0.067-0.035-0.154-0.081-0.275-0.145v-7.747c3.115-1.976,6.035-4.169,8.744-6.555c32.734-0.001,39.872-0.022,40.968-0.027
			c-0.319,0.002-0.883,0.01,0.139,0.027c15.046,0,23.876-16.998,16.019-29.737c-20.03-32.482,5.251-72.132-24.174-118.657
			c28.555-9.056,49.31-35.807,49.31-67.321c0-38.935-31.676-70.61-70.61-70.61c-48.758,0-82.979,48.571-66.456,94.464
			c-18.406,1.979-35.96,9.638-50.372,22.217c-3.121,2.724-3.442,7.461-0.719,10.582c2.724,3.122,7.462,3.443,10.582,0.719
			c13.529-11.808,30.327-18.479,47.688-19.014c14.146,21.825,39.121,33.983,64.545,32.049c11.61,15.712,15.908,31.921,16.516,50.915
			c-3.113-1.652-6.584-2.832-10.283-3.441c-0.001-3.086,0.002-2.775-0.002-3.003c-0.168-9.753-11.388-15.175-19.161-9.205
			c-4.118,3.164-11.081,7.411-21.3,10.174v-5.781c0-7.755-8.527-12.531-15.136-8.459c-11.03,6.787-39.754,21.749-68.16,14.133
			c-3.15-0.847-6.436-0.219-9.062,1.703c-5.341,0.201-10.337,1.589-14.65,3.875c0.148-13.387,3.351-26.67,9.303-38.472
			c1.865-3.698,0.38-8.208-3.319-10.073c-3.696-1.867-8.209-0.38-10.073,3.319c-22.634,44.873-0.019,78.388-19.444,109.889
			c-7.867,12.758,0.993,29.737,16.02,29.737h39.249c3.34,2.95,7.008,5.554,10.963,7.744l0.005,6.545l-15.484,8.127
			c-41.949,15.592-45.485,16.075-52.598,22.861c-5.934,5.633-9.226,12.338-10.07,19.878c-15.805,86.33-12.759,69.379-13.11,71.622
			c-2.369,13.518,7.569,26.882,22.774,27.108c220.645,0,209.551,0.044,211.213-0.136
			C504.503,448.626,513.87,435.899,511.683,422.779z M407.876,114.969c-13.419-10.162-22.109-26.259-22.109-44.352
			c0-30.663,24.947-55.61,55.611-55.61c30.663,0,55.61,24.947,55.61,55.61C496.989,115.916,444.724,142.734,407.876,114.969z
			 M452.881,203.864c13.682,4.135,13.692,18.567,0,22.706V203.864z M452.518,241.994c4.271-0.657,8.245-2.078,11.727-4.104
			c3.484,22.701,12.982,25.883,9.922,31.356c-0.351,0.63-1.079,1.604-2.341,1.955c-0.979-0.155-1.992-0.117-2.983,0.131h-26.366
			C447.975,262.555,451.444,252.559,452.518,241.994z M315.671,203.869v22.695C302.018,222.435,302.024,207.997,315.671,203.869z
			 M297.896,271.332c-3.18,0-5.007-4.016-3.251-6.863c5.118-8.298,8.415-17.166,9.876-26.465c3.356,1.918,7.159,3.281,11.241,3.942
			c0.536,10.514,3.695,20.594,8.947,29.386H297.896z M319.535,393.318l9.396,41.899h-15.815v-23.935c0-4.143-3.357-7.5-7.5-7.5
			c-4.143,0-7.5,3.357-7.5,7.5v23.935h-18.493c-4.493,0.001-8.051-3.644-8.107-7.977c14.409-79.783,13.104-78.645,17.928-83.832
			c5.036-5.427,9.523-6.103,33.981-15.235c-4.297,12.465-5.802,16.814-5.877,17.064c-1.33,4.508-0.412,9.422,2.458,13.146
			l10.621,13.778l-7.961,8.993C319.739,384.461,318.568,389.009,319.535,393.318z M344.306,435.218l-9.997-44.583l9.478-10.706
			c3.646-4.12,3.853-10.271,0.494-14.628l-12.292-15.945l9.822-28.485l6.573-3.449c0.321,14.692,2.312,105.723,2.576,117.795
			H344.306z M330.672,238.748c0-6.102,0-22.345,0-36.663c26.604,5.047,52.018-4.936,66.777-12.708
			c0.562,8.559,8.219,14.188,16.663,12.138c10.271-2.496,18.144-6.327,23.768-9.87c0,15.838,0,28.83,0,43.283
			c0,38.741-40.218,66.692-80.368,47.15C341.208,274.14,330.672,257.132,330.672,238.748z M363.517,323.318l8.297,8.082
			l-7.999,5.567C363.813,336.868,363.523,323.588,363.517,323.318z M401.421,435.218h-10.364v-71.52c0-4.143-3.357-7.5-7.5-7.5
			c-4.143,0-7.5,3.357-7.5,7.5v71.52h-10.091l-1.755-80.248l19.347-13.466l20.647,14.369L401.421,435.218z M404.828,338.033
			l-9.264-6.446l9.802-8.913L404.828,338.033z M405.984,301.839l-22.251,20.23l-20.618-20.082l-0.001-1.149
			c6.762,1.893,13.787,2.788,20.824,2.705c0.146,0.001,0.294,0.007,0.44,0.007c7.376,0,14.642-1.177,21.606-3.509V301.839z
			 M422.831,365.301c-3.358,4.356-3.151,10.508,0.496,14.63l9.476,10.704l-9.997,44.583h-6.376l4.132-117.841l6.082,3.214
			l8.49,28.752L422.831,365.301z M488.32,435.218h-19.617v-23.935c0-4.143-3.357-7.5-7.5-7.5c-4.143,0-7.5,3.357-7.5,7.5v23.935
			h-15.524l9.396-41.899c0.967-4.31-0.204-8.856-3.132-12.164l-7.96-8.992l10.622-13.779c2.869-3.724,3.787-8.638,2.457-13.147
			l-5.177-17.535c30.502,11.416,37.895,10.189,41.781,31.765c1.322,7.313,5.914,36.416,10.753,66.233
			C497.435,430.776,493.453,435.218,488.32,435.218z"/>
	</g>
</g>
<g>
	<g>
		<path d="M462.838,41.491c-3.348-2.438-8.039-1.701-10.479,1.646l-34.085,46.797c-2.438,3.349-1.701,8.04,1.646,10.479
			c3.377,2.459,8.06,1.674,10.479-1.646l34.085-46.797C466.923,48.622,466.185,43.93,462.838,41.491z"/>
	</g>
</g>
<g>
	<g>
		<path d="M205.428,309.536c0.004,0.001,0.009,0.003,0.013,0.005c0.034,0.01,0.058,0.019,0.077,0.026
			C205.495,309.559,205.464,309.548,205.428,309.536z"/>
	</g>
</g>
<g>
	<g>
		<path d="M205.08,309.412c0.003,0.001,0.006,0.002,0.009,0.003C205.083,309.413,205.08,309.412,205.08,309.412z"/>
	</g>
</g>
<g>
	<g>
		<path d="M205.261,309.476c0.015,0.005,0.029,0.01,0.046,0.016C205.292,309.487,205.276,309.481,205.261,309.476z"/>
	</g>
</g>
<g>
	<g>
		<path d="M205.103,309.42c0.019,0.007,0.037,0.013,0.054,0.019C205.135,309.431,205.117,309.425,205.103,309.42z"/>
	</g>
</g>
<g>
	<g>
		<path d="M233.482,343.374c-1.629-9.122-4.354-24.39-22.61-32.064c-1.477-0.62-4.326-1.479-5.307-1.727
			c-0.003-0.001-0.005-0.002-0.008-0.003c-0.004-0.001-0.007-0.002-0.01-0.004c-0.006-0.002-0.016-0.006-0.028-0.01
			c0.01,0.003,0.018,0.006,0.024,0.009c-0.036-0.013-0.07-0.025-0.101-0.036c-0.014-0.005-0.031-0.011-0.048-0.017
			c0.012,0.004,0.024,0.008,0.035,0.012c-0.046-0.016-0.085-0.03-0.121-0.043c0.024,0.009,0.048,0.017,0.071,0.025
			c-0.034-0.012-0.072-0.025-0.117-0.042c-0.031-0.011-0.067-0.024-0.104-0.037c0.013,0.005,0.026,0.009,0.041,0.014
			c-0.047-0.017-0.079-0.028-0.097-0.034l0.002,0.001c-0.005-0.002-0.01-0.004-0.015-0.005l0.002,0.001
			c-0.008-0.003-0.011-0.004-0.011-0.004c-1.69-0.597-8.708-3.076-33.646-11.883l-0.001,0.003c-3.53-1.135,0.194,0.157-12.938-7.543
			v-6.641c12.724-7.518,23.338-19.421,28.415-35.81c1.253,0.152,2.51,0.231,3.764,0.231c24.625,0,38.72-27.335,21.893-44.903
			c0.006-0.101,0.155-21.043-0.14-22.755c-0.895-15.707-5.358-30.239-13.01-42.667c27.793-9.497,47.842-35.854,47.842-66.823
			c0-38.935-31.676-70.61-70.61-70.61c-49.715,0-84.06,50.382-65.605,96.673c-44.316,5.222-74.124,40.314-77.338,81.506
			c-0.377,4.758-0.375,23.611-0.303,24.705c-18.05,18.896-0.413,48.02,25.938,44.617c5.813,17.867,16.899,29.988,29.987,37.218
			l0.004,5.241l-11.69,7.162c-0.101,0.035-39.16,13.58-39.264,13.618c-11.383,4.252-20.861,13.787-22.22,27.024
			c-0.152,1.453-2,13.066-15.836,89.334c-1.04,5.736,0.505,11.592,4.24,16.067c3.738,4.478,9.229,7.046,15.065,7.046
			c8.691,0,198.04,0,206.833,0c12.822,0,22.581-11.492,20.526-24.134C231.978,333.789,234.38,348.399,233.482,343.374z
			 M199.73,229.937c-2.801,1.975-6.168,2.939-9.605,2.821v-24.07C203.508,208.278,210.153,222.591,199.73,229.937z M176.648,15.007
			c30.663,0,55.61,24.947,55.61,55.61c0,31.208-26.162,57.263-58.68,55.523c-29.241-1.599-52.541-25.889-52.541-55.523
			C121.038,39.954,145.985,15.007,176.648,15.007z M41.148,220.724c0-7.27,7.354-12.265,14.704-12.035
			c-0.01,3.335,0.02,23.969,0.02,24.071C48.531,233.01,41.148,227.999,41.148,220.724z M57.876,193.797
			c-3.198-0.262-6.401-0.03-9.498,0.679c0.025-11.365-0.245-18.194,2.729-29.001c10.615-38.462,41.189-53.199,67.672-54.386
			c14.944,21.413,39.769,32.292,64.917,29.788c14.905,20.332,13.896,41.213,13.896,53.595c-2.442-0.557-4.951-0.816-7.472-0.771
			l-0.001-9.659c0-5.409-4.07-9.88-9.469-10.4c-5.694-0.551-10.141-3.636-13.215-9.173c-3.833-6.903-12.982-8.529-18.958-3.423
			c-21.069,18.011-45.395,18.918-62.086,16.51C74.399,175.824,62.575,182.361,57.876,193.797z M70.873,222.48v-18.492
			c0.023-0.107-0.256-5.161,4.01-8.854c2.57-2.226,5.987-3.218,9.364-2.734c19.161,2.766,46.897,1.77,71.663-18.039
			c4.707,7.07,11.364,11.759,19.209,13.551c0.008,44.577,0.019,39.043-0.074,40.941C171.783,293.189,71.459,297.934,70.873,222.48z
			 M123.161,309.337l-18.829-18.339v-0.243c12.731,3.436,26.411,3.168,39.163-0.764v0.857L123.161,309.337z M133.515,336.101
			l-4.986,12.279H117.44l-4.986-12.279l10.53-7.328C125.465,330.499,131.016,334.362,133.515,336.101z M111.243,318.667
			c-4.919,3.423-11.209,7.8-14.435,10.044l-6.986-21.454c0.117-0.072,6.348-3.889,5.958-3.65L111.243,318.667z M151.855,303.52
			l5.502,3.406l-8.141,21.826c-2.918-2.031-11.431-7.955-14.224-9.898L151.855,303.52z M91.372,435.218h-24.82v-56.126
			c0-4.143-3.357-7.5-7.5-7.5c-4.143,0-7.5,3.357-7.5,7.5v56.126H19.627c-2.889,0-5.059-2.604-4.545-5.435
			c18.328-101.029,15.888-93.399,18.138-96.883c2.522-3.903,6.537-6.826,10.829-8.198c4.835-1.548,26.264-9.14,31.047-10.835
			c0.078-0.028,0.743-0.256,0.991-0.342l7.005,21.512c1.355,4.161,4.512,7.346,8.66,8.738c1.444,0.485,2.924,0.725,4.391,0.725
			c1.134,0,2.258-0.151,3.354-0.434l5.135,12.647L91.372,435.218z M106.585,435.218l12.135-71.838h8.527l12.134,71.838H106.585z
			 M226.46,435.218h-32.02v-56.126c0-4.143-3.357-7.5-7.5-7.5s-7.5,3.357-7.5,7.5v56.126h-24.844l-13.26-78.507l5.135-12.646
			c1.096,0.283,2.22,0.434,3.354,0.434c1.467,0,2.946-0.239,4.391-0.725c4.089-1.372,7.214-4.486,8.601-8.56l8.173-21.913
			c1.535,0.538,1.707,0.604,1.965,0.686l0.003,0.001c0.1,0.031,32.007,11.11,32.107,11.152c10.95,4.603,11.934,12.285,14.109,23.37
			l13.004,79.982C232.753,432.019,230.037,435.218,226.46,435.218z"/>
	</g>
</g>
<g>
	<g>
		<path d="M198.107,41.49c-3.348-2.438-8.039-1.701-10.479,1.646l-34.085,46.797c-3.632,4.99,0.003,11.918,6.057,11.918
			c2.315,0,4.601-1.07,6.068-3.085l34.085-46.797C202.191,48.621,201.454,43.93,198.107,41.49z"/>
	</g>
</g>
<g>
	<g>
		<path d="M489.699,467.41c-13.174,0-192.659,0-202.674,0c-14.016,0-24.546,12.818-21.878,26.55
			c1.984,10.211,10.956,17.955,21.722,18.029c0.052,0,0.103,0.004,0.155,0.004h0.001c16.695,0,120.877,0,137.069,0
			c4.143,0,7.5-3.357,7.5-7.5c0-4.143-3.357-7.5-7.5-7.5h-33.038v-14.582h98.643c4.02,0,7.29,3.271,7.29,7.29
			c0,4.021-3.271,7.291-7.29,7.291h-30.604c-4.143,0-7.5,3.357-7.5,7.5c0,4.143,3.357,7.5,7.5,7.5h30.604
			c12.291,0,22.291-10,22.291-22.292C511.99,477.41,501.991,467.41,489.699,467.41z M376.055,496.992
			c-94.438-0.013-89.073,0.034-89.774-0.038c-3.671-0.374-6.546-3.485-6.546-7.253c0-4.02,3.271-7.29,7.29-7.29h89.03V496.992z"/>
	</g>
</g>
<g>
	<g>
		<path d="M224.968,467.41h-24.844c-4.143,0-7.5,3.357-7.5,7.5c0,4.143,3.357,7.5,7.5,7.5h24.844c4.02,0,7.29,3.271,7.29,7.29
			c0,4.021-3.271,7.291-7.29,7.291h-93.836v-14.582h33.991c4.143,0,7.5-3.357,7.5-7.5c0-4.143-3.357-7.5-7.5-7.5
			c-10.062,0-119.046,0-142.829,0c-13.969,0-24.555,12.77-21.878,26.55c2.005,10.318,11.109,18.033,21.877,18.033h0.001
			c5.718,0,196.96,0,202.674,0c12.291,0,22.291-10,22.291-22.292S237.259,467.41,224.968,467.41z M116.131,496.992
			c-99.782-0.013-93.879,0.034-94.581-0.038c-3.671-0.374-6.546-3.485-6.546-7.253c0-4.002,3.253-7.29,7.291-7.29h93.836V496.992z"
			/>
	</g>
</g>
<g>
	<g>
		<circle cx="419.015" cy="50.821" r="10.893"/>
	</g>
</g>
<g>
	<g>
		<circle cx="463.916" cy="90.673" r="10.893"/>
	</g>
</g>
<g>
	<g>
		<circle cx="154.285" cy="50.821" r="10.893"/>
	</g>
</g>
<g>
	<g>
		<circle cx="199.187" cy="90.673" r="10.893"/>
	</g>
</g>
<g>
</g>
<g>
</g>
<g>
</g>
<g>
</g>
<g>
</g>
<g>
</g>
<g>
</g>
<g>
</g>
<g>
</g>
<g>
</g>
<g>
</g>
<g>
</g>
<g>
</g>
<g>
</g>
<g>
</g>
</svg>
