<?xml version="1.0" encoding="iso-8859-1"?>
<!-- Generator: Adobe Illustrator 19.0.0, SVG Export Plug-In . SVG Version: 6.00 Build 0)  -->
<svg version="1.1" id="Capa_1" xmlns="http://www.w3.org/2000/svg" xmlns:xlink="http://www.w3.org/1999/xlink" x="0px" y="0px"
	 viewBox="0 0 480 480" style="enable-background:new 0 0 480 480;" xml:space="preserve">
<g>
	<g>
		<path d="M132,112c-15.464,0-28,12.536-28,28s12.536,28,28,28s28-12.536,28-28S147.464,112,132,112z M132,152
			c-6.627,0-12-5.373-12-12c0-6.627,5.373-12,12-12c6.627,0,12,5.373,12,12C144,146.628,138.628,152,132,152z"/>
	</g>
</g>
<g>
	<g>
		<path d="M348,112c-15.464,0-28,12.536-28,28s12.536,28,28,28c15.464,0,28-12.536,28-28S363.464,112,348,112z M348,152
			c-6.627,0-12-5.373-12-12c0-6.627,5.373-12,12-12c6.627,0,12,5.373,12,12C360,146.628,354.628,152,348,152z"/>
	</g>
</g>
<g>
	<g>
		<path d="M288,112h-96c-8.837,0-16,7.163-16,16v24c0,8.837,7.163,16,16,16h96c8.837,0,16-7.163,16-16v-24
			C304,119.164,296.837,112,288,112z M288,152h-96v-24h96V152z"/>
	</g>
</g>
<g>
	<g>
		<path d="M472,0h-40c-4.418,0-8,3.582-8,8v256h-16v-8c0-4.418-3.582-8-8-8h-8v-30.24c5.07-4.514,7.979-10.972,8-17.76v-80.312
			c0.017-7.296-3.3-14.199-9.008-18.744l-30.296-24.232c-1.113-0.887-1.969-2.055-2.48-3.384l-11.68-54.4
			C344.104,7.908,334.358,0.046,323.072,0H156.8c-11.268-0.052-21.036,7.788-23.424,18.8l-12,53.952
			c-0.403,1.783-1.399,3.376-2.824,4.52l-29.6,23.68c-5.687,4.552-8.984,11.452-8.952,18.736V200c0.021,6.788,2.93,13.246,8,17.76
			V248h-8c-4.418,0-8,3.582-8,8v8H56V8c0-4.418-3.582-8-8-8H8C3.582,0,0,3.582,0,8v464c0,4.418,3.582,8,8,8h40c4.418,0,8-3.582,8-8
			V342.24l89.936-22.48c3.563-0.889,6.063-4.088,6.064-7.76v-16h8c4.418,0,8-3.582,8-8v-32c0-4.418-3.582-8-8-8h-8v-24h176v24h-8
			c-4.418,0-8,3.582-8,8v32c0,4.418,3.582,8,8,8h8v16c0.001,3.672,2.501,6.871,6.064,7.76L424,342.24V472c0,4.418,3.582,8,8,8h40
			c4.418,0,8-3.582,8-8V8C480,3.582,476.418,0,472,0z M40,272v192H16V16h24V272z M218.136,22.32l4.208-6.32h100.728
			c3.772-0.001,7.032,2.632,7.824,6.32L341.6,72H224.696c5.888-11.098,3.871-24.736-4.976-33.656
			C215.454,34.057,214.792,27.36,218.136,22.32z M184.072,22.32L188.28,16h15.144c-5.88,11.101-3.861,24.736,4.984,33.656
			c4.258,4.28,4.926,10.962,1.6,16l-4.208,6.32h-15.16c5.88-11.101,3.861-24.736-4.984-33.656
			C181.403,34.036,180.742,27.355,184.072,22.32z M149.032,22.264c0.788-3.658,4.026-6.269,7.768-6.264h12.56
			c-5.88,11.101-3.861,24.736,4.984,33.656c4.258,4.28,4.926,10.962,1.6,16l-4.208,6.32h-33.76L149.032,22.264z M96,119.688
			c-0.006-2.431,1.103-4.73,3.008-6.24l29.6-23.68c0.649-0.556,1.269-1.146,1.856-1.768h218.928c0.432,0.4,0.8,0.8,1.296,1.2
			l30.304,24.24c1.9,1.517,3.007,3.816,3.008,6.248V176H96V119.688z M136,305.752l-80,20V280h16v8c0,4.418,3.582,8,8,8h56V305.752z
			 M152,280H88v-16h64V280z M104,248v-24h32v24H104z M152,208h-48c-4.418,0-8-3.582-8-8v-8h288v8c0,4.418-3.582,8-8,8H152z M376,224
			v24h-32v-24H376z M328,280v-16h64v16H328z M424,325.752l-80-20V296h56c4.418,0,8-3.582,8-8v-8h16V325.752z M464,464h-24V16h24V464
			z"/>
	</g>
</g>
<g>
	<g>
		<path d="M309.264,329.976l-64-56c-3.015-2.634-7.513-2.634-10.528,0l-64,56c-3.327,2.907-3.667,7.961-0.76,11.288
			c1.519,1.738,3.715,2.736,6.024,2.736h24v72c0,4.418,3.582,8,8,8h64c4.418,0,8-3.582,8-8v-72h24c4.418,0,8-3.582,8-8
			C312,333.691,311.003,331.495,309.264,329.976z M272,328c-4.418,0-8,3.582-8,8v72h-48v-72c0-4.418-3.582-8-8-8h-10.712
			L240,290.632L282.712,328H272z"/>
	</g>
</g>
<g>
</g>
<g>
</g>
<g>
</g>
<g>
</g>
<g>
</g>
<g>
</g>
<g>
</g>
<g>
</g>
<g>
</g>
<g>
</g>
<g>
</g>
<g>
</g>
<g>
</g>
<g>
</g>
<g>
</g>
</svg>
