<?xml version="1.0" encoding="utf-8"?>
<!-- Generator: Adobe Illustrator 16.0.0, SVG Export Plug-In . SVG Version: 6.00 Build 0)  -->
<!DOCTYPE svg PUBLIC "-//W3C//DTD SVG 1.1//EN" "http://www.w3.org/Graphics/SVG/1.1/DTD/svg11.dtd">
<svg version="1.1" id="Capa_1" xmlns="http://www.w3.org/2000/svg" xmlns:xlink="http://www.w3.org/1999/xlink" x="0px" y="0px"
	 width="500px" height="500px" viewBox="0 0 500 500" enable-background="new 0 0 500 500" xml:space="preserve">
<g>
	<g>
		<path fill="#FFFFFF" d="M490.234,480.469h-23.438v-64.453c0-5.394-4.373-9.766-9.766-9.766s-9.766,4.372-9.766,9.766v64.453
			h-93.75V257.813h93.75v67.404c0,5.394,4.373,9.766,9.766,9.766s9.766-4.372,9.766-9.766v-77.17c0-5.394-4.373-9.766-9.766-9.766
			H343.75c-5.393,0-9.766,4.372-9.766,9.766v232.422H316.53V310.547c0-5.394-4.373-9.766-9.766-9.766h-46.999v-44.601
			c1.218-0.477,2.36-1.201,3.344-2.185l20.382-20.382c1.858,0.117,4.316,0.221,7.235,0.221c15.012,0,41.994-2.729,59.911-20.314
			c23.979-23.531,20.889-64.254,20.223-70.751c-0.141-2.296-1.088-4.552-2.843-6.307c-1.729-1.728-3.942-2.672-6.203-2.833
			c-5.441-0.491-45.124-3.144-69.503,20.769c-19.977,19.605-21.717,50.652-21.418,64.193l-11.128,11.126v-75.421
			c0-0.886-0.129-1.74-0.35-2.556c37.572-4.656,66.756-36.758,66.756-75.569C326.172,34.171,292.002,0,250,0
			s-76.172,34.171-76.172,76.172c0,38.812,29.184,70.913,66.756,75.569c-0.221,0.816-0.35,1.67-0.35,2.556v38.813
			c-2.533-3.536-5.383-6.92-8.599-10.075c-31.924-31.314-85.755-27.637-91.287-27.165c-2.436,0.129-4.826,1.166-6.622,3.09
			c-1.6,1.713-2.463,3.85-2.605,6.021c-0.819,7.788-5.259,62.178,26.357,93.204h-0.001c23.395,22.962,58.803,26.54,78.598,26.54
			c1.479,0,2.865-0.021,4.158-0.054v16.109h-46.751c-5.393,0-9.766,4.372-9.766,9.766v169.922h-17.701V373.047
			c0-5.394-4.373-9.766-9.766-9.766H42.969c-5.393,0-9.766,4.372-9.766,9.766v107.422H9.766c-5.393,0-9.766,4.372-9.766,9.766
			S4.373,500,9.766,500h480.469c5.393,0,9.766-4.372,9.766-9.766S495.627,480.469,490.234,480.469z M305.991,168.337
			c13.092-12.843,34.178-15.198,45.829-15.438c0.08,11.966-1.755,33.816-14.863,46.681c-9.072,8.904-22.198,12.53-33.35,13.918
			l11.472-11.472c3.813-3.813,3.813-9.997,0-13.811c-3.814-3.813-9.996-3.813-13.812,0l-9.245,9.245
			C293.933,187.368,297.909,176.269,305.991,168.337z M217.802,228.749c-3.814-3.813-9.996-3.813-13.812,0
			c-3.813,3.813-3.813,9.997,0,13.812l22.295,22.295c-16.916-1.117-39.866-5.634-55.126-20.611
			c-19.979-19.608-21.55-53.55-21.098-69.199c15.259-0.035,47.932,2.348,67.896,21.931c15.023,14.744,20.074,36.904,21.613,53.542
			L217.802,228.749z M146.484,480.469h-93.75v-97.656h93.75V480.469z M193.359,76.172c0-31.231,25.409-56.641,56.641-56.641
			s56.641,25.409,56.641,56.641S281.231,132.813,250,132.813S193.359,107.403,193.359,76.172z M296.999,480.469h-54.812v-59.543
			c0-5.394-4.373-9.766-9.766-9.766s-9.766,4.372-9.766,9.766v59.543h-19.407V320.313h93.75V480.469z"/>
	</g>
</g>
<g>
	<g>
		<path fill="#FFFFFF" d="M463.935,364.189c-1.815-1.816-4.335-2.861-6.903-2.861s-5.088,1.045-6.904,2.861
			s-2.861,4.336-2.861,6.904s1.044,5.088,2.861,6.904s4.336,2.861,6.904,2.861s5.088-1.045,6.903-2.861
			c1.816-1.816,2.862-4.336,2.862-6.904S465.752,366.006,463.935,364.189z"/>
	</g>
</g>
<g>
	<g>
		<path fill="#FFFFFF" d="M250,66.063c-5.501,0-9.977-3.657-9.977-8.152s4.476-8.151,9.977-8.151s9.977,3.657,9.977,8.151
			c0,5.394,4.373,9.766,9.766,9.766s9.766-4.372,9.766-9.766c0-12.067-8.276-22.35-19.78-26.13
			c-0.389-5.037-4.591-9.006-9.728-9.006s-9.339,3.969-9.728,9.006c-11.505,3.78-19.78,14.063-19.78,26.13
			c0,15.265,13.237,27.684,29.508,27.684c5.501,0,9.977,3.657,9.977,8.151s-4.476,8.151-9.977,8.151s-9.977-3.657-9.977-8.151
			c0-5.394-4.373-9.766-9.766-9.766s-9.766,4.372-9.766,9.766c0,12.071,8.281,22.356,19.791,26.134
			c0.489,4.936,4.652,8.791,9.717,8.791s9.228-3.855,9.717-8.791c11.51-3.777,19.791-14.063,19.791-26.134
			C279.508,78.481,266.271,66.063,250,66.063z"/>
	</g>
</g>
<g>
	<g>
		<path fill="#FFFFFF" d="M239.325,375.557c-1.815-1.816-4.335-2.861-6.903-2.861s-5.088,1.045-6.904,2.861
			s-2.861,4.336-2.861,6.904s1.044,5.088,2.861,6.904c1.816,1.816,4.336,2.861,6.904,2.861s5.088-1.045,6.903-2.861
			c1.816-1.816,2.862-4.336,2.862-6.904S241.143,377.373,239.325,375.557z"/>
	</g>
</g>
</svg>
