<?xml version="1.0" encoding="iso-8859-1"?>
<!-- Generator: Adobe Illustrator 19.0.0, SVG Export Plug-In . SVG Version: 6.00 Build 0)  -->
<svg version="1.1" id="Capa_1" xmlns="http://www.w3.org/2000/svg" xmlns:xlink="http://www.w3.org/1999/xlink" x="0px" y="0px"
	 viewBox="0 0 512 512" style="enable-background:new 0 0 512 512;" xml:space="preserve">
<g>
	<g>
		<path d="M502,492h-24v-66c0-5.523-4.478-10-10-10c-5.522,0-10,4.477-10,10v66h-96V264h96v69.022c0,5.523,4.478,10,10,10
			c5.522,0,10-4.477,10-10V254c0-5.523-4.478-10-10-10H352c-5.522,0-10,4.477-10,10v238h-17.873V318c0-5.523-4.478-10-10-10H266
			v-45.671c1.247-0.488,2.417-1.23,3.424-2.237l20.871-20.871c1.903,0.12,4.42,0.226,7.409,0.226
			c15.372,0,43.002-2.794,61.349-20.802c24.554-24.096,21.39-65.796,20.708-72.449c-0.144-2.351-1.114-4.661-2.911-6.458
			c-1.77-1.769-4.037-2.736-6.352-2.901c-5.572-0.503-46.207-3.219-71.171,21.267c-20.456,20.076-22.238,51.868-21.932,65.734
			L266,235.231V158c0-0.907-0.132-1.782-0.358-2.617C304.116,150.615,334,117.743,334,78c0-43.009-34.99-78-78-78s-78,34.991-78,78
			c0,39.743,29.884,72.615,68.358,77.383c-0.226,0.836-0.358,1.71-0.358,2.617v39.745c-2.594-3.621-5.512-7.086-8.805-10.317
			c-32.69-32.066-87.813-28.3-93.478-27.817c-2.494,0.132-4.942,1.194-6.781,3.164c-1.638,1.754-2.522,3.942-2.668,6.166
			c-0.839,7.975-5.385,63.67,26.99,95.441h-0.001c23.956,23.513,60.214,27.177,80.484,27.177c1.514,0,2.934-0.021,4.258-0.055V308
			h-47.873c-5.522,0-10,4.477-10,10v174H170V382c0-5.523-4.478-10-10-10H44c-5.522,0-10,4.477-10,10v110H10c-5.522,0-10,4.477-10,10
			s4.478,10,10,10h492c5.522,0,10-4.477,10-10S507.522,492,502,492z M313.335,172.377c13.406-13.151,34.998-15.563,46.929-15.809
			c0.082,12.253-1.797,34.628-15.22,47.801c-9.29,9.118-22.731,12.831-34.15,14.252l11.747-11.747
			c3.905-3.905,3.905-10.237,0-14.142c-3.906-3.905-10.236-3.904-14.143,0l-9.467,9.467
			C300.987,191.865,305.059,180.499,313.335,172.377z M223.029,234.239c-3.906-3.904-10.236-3.904-14.143,0
			c-3.905,3.905-3.905,10.237,0,14.143l22.83,22.83c-17.322-1.144-40.823-5.769-56.449-21.106
			c-20.459-20.079-22.067-54.835-21.604-70.86c15.625-0.036,49.082,2.404,69.525,22.457c15.384,15.098,20.556,37.79,22.132,54.827
			L223.029,234.239z M150,492H54V392h96V492z M198,78c0-31.981,26.019-58,58-58s58,26.019,58,58s-26.019,58-58,58
			C224.019,136,198,109.981,198,78z M304.127,492H248v-60.972c0-5.523-4.478-10-10-10c-5.522,0-10,4.477-10,10V492h-19.873V328h96
			V492z"/>
	</g>
</g>
<g>
	<g>
		<path d="M475.069,372.93C473.21,371.07,470.63,370,468,370s-5.21,1.07-7.07,2.93c-1.86,1.86-2.93,4.44-2.93,7.07
			s1.069,5.21,2.93,7.07c1.861,1.86,4.44,2.93,7.07,2.93s5.21-1.07,7.069-2.93c1.86-1.86,2.931-4.44,2.931-7.07
			S476.93,374.79,475.069,372.93z"/>
	</g>
</g>
<g>
	<g>
		<path d="M256,67.649c-5.633,0-10.216-3.745-10.216-8.348c0-4.603,4.583-8.347,10.216-8.347s10.216,3.745,10.216,8.347
			c0,5.523,4.478,10,10,10c5.522,0,10-4.477,10-10c0-12.357-8.475-22.886-20.255-26.757c-0.398-5.158-4.701-9.222-9.961-9.222
			s-9.563,4.064-9.961,9.222c-11.781,3.871-20.255,14.4-20.255,26.757c0,15.631,13.555,28.348,30.216,28.348
			c5.633,0,10.216,3.745,10.216,8.347c0,4.602-4.583,8.347-10.216,8.347s-10.216-3.745-10.216-8.347c0-5.523-4.478-10-10-10
			c-5.522,0-10,4.477-10,10c0,12.361,8.48,22.893,20.266,26.761c0.501,5.054,4.764,9.002,9.95,9.002c5.186,0,9.449-3.948,9.95-9.002
			c11.786-3.868,20.266-14.4,20.266-26.761C286.216,80.365,272.661,67.649,256,67.649z"/>
	</g>
</g>
<g>
	<g>
		<path d="M245.069,384.57c-1.859-1.86-4.439-2.93-7.069-2.93s-5.21,1.07-7.07,2.93s-2.93,4.44-2.93,7.07s1.069,5.21,2.93,7.07
			c1.86,1.86,4.44,2.93,7.07,2.93s5.21-1.07,7.069-2.93c1.86-1.86,2.931-4.44,2.931-7.07S246.93,386.43,245.069,384.57z"/>
	</g>
</g>
<g>
</g>
<g>
</g>
<g>
</g>
<g>
</g>
<g>
</g>
<g>
</g>
<g>
</g>
<g>
</g>
<g>
</g>
<g>
</g>
<g>
</g>
<g>
</g>
<g>
</g>
<g>
</g>
<g>
</g>
</svg>
