<?xml version="1.0" encoding="utf-8"?>
<!-- Generator: Adobe Illustrator 16.0.0, SVG Export Plug-In . SVG Version: 6.00 Build 0)  -->
<!DOCTYPE svg PUBLIC "-//W3C//DTD SVG 1.1//EN" "http://www.w3.org/Graphics/SVG/1.1/DTD/svg11.dtd">
<svg version="1.1" id="Capa_1" xmlns="http://www.w3.org/2000/svg" xmlns:xlink="http://www.w3.org/1999/xlink" x="0px" y="0px"
	 width="500px" height="500px" viewBox="0 0 500 500" enable-background="new 0 0 500 500" xml:space="preserve">
<g>
	<g>
		<path fill="#FFFFFF" d="M250.002,53.71L250.002,53.71L250.002,53.71z M249.946,43.944l0.058,9.766L249.946,43.944z"/>
	</g>
</g>
<g>
	<g>
		<path fill="#FFFFFF" d="M188.363,210.203c-7.636-16.147-24.104-26.582-41.954-26.582c-17.85,0-34.318,10.434-41.955,26.582
			c-2.306,4.876-0.223,10.697,4.653,13.003c4.874,2.305,10.696,0.223,13.003-4.653c4.424-9.355,13.962-15.4,24.298-15.4
			s19.874,6.045,24.298,15.4c1.668,3.528,5.176,5.594,8.835,5.594c1.398,0,2.819-0.302,4.168-0.94
			C188.585,220.9,190.668,215.079,188.363,210.203z"/>
	</g>
</g>
<g>
	<g>
		<path fill="#FFFFFF" d="M395.548,210.203c-7.636-16.147-24.104-26.582-41.954-26.582s-34.317,10.434-41.954,26.582
			c-2.306,4.876-0.223,10.697,4.653,13.003c4.873,2.305,10.697,0.223,13.003-4.653c4.424-9.355,13.962-15.4,24.298-15.4
			s19.874,6.045,24.298,15.4c1.668,3.528,5.176,5.594,8.835,5.594c1.398,0,2.82-0.302,4.168-0.94
			C395.771,220.9,397.854,215.079,395.548,210.203z"/>
	</g>
</g>
<g>
	<g>
		<path fill="#FFFFFF" d="M321.174,303.84H180.548c-5.394,0-9.766,4.373-9.766,9.766c0,44.156,35.923,80.079,80.079,80.079
			c44.154,0,80.078-35.925,80.078-80.079C330.939,308.213,326.567,303.84,321.174,303.84z M250.861,374.153
			c-30.062,0-55.078-22.022-59.76-50.782h119.52C305.938,352.131,280.922,374.153,250.861,374.153z"/>
	</g>
</g>
<g>
	<g>
		<path fill="#FFFFFF" d="M450.508,100.625c-3.228-4.32-9.345-5.207-13.668-1.98c-4.32,3.228-5.208,9.347-1.98,13.668
			c67.944,90.975,58.532,220.227-21.893,300.653c-89.859,89.859-236.073,89.859-325.933,0c-89.86-89.86-89.86-236.073,0-325.933
			C167.551,6.517,296.893-2.83,387.895,65.296c4.318,3.231,10.438,2.352,13.671-1.966c3.231-4.317,2.352-10.438-1.966-13.67
			C351.931,13.975,292.791-3.457,233.073,0.569c-60.298,4.068-117.067,29.869-159.85,72.652C26.005,120.441,0,183.222,0,250
			c0,66.778,26.005,129.559,73.223,176.778C120.442,473.995,183.223,500,250,500c66.778,0,129.558-26.005,176.777-73.224
			c42.747-42.748,68.546-99.47,72.644-159.716C503.479,207.399,486.107,148.292,450.508,100.625z"/>
	</g>
</g>
<g>
	<g>
		<path fill="#FFFFFF" d="M426.888,73.333l-0.185-0.186c-3.803-3.824-9.987-3.84-13.811-0.036c-3.824,3.804-3.84,9.987-0.036,13.811
			l0.185,0.186c1.908,1.918,4.415,2.878,6.923,2.878c2.49,0,4.982-0.946,6.888-2.842C430.676,83.34,430.691,77.156,426.888,73.333z"
			/>
	</g>
</g>
</svg>
