<?xml version="1.0" encoding="utf-8"?>
<!-- Generator: Adobe Illustrator 16.0.0, SVG Export Plug-In . SVG Version: 6.00 Build 0)  -->
<!DOCTYPE svg PUBLIC "-//W3C//DTD SVG 1.1//EN" "http://www.w3.org/Graphics/SVG/1.1/DTD/svg11.dtd">
<svg version="1.1" id="Capa_1" xmlns="http://www.w3.org/2000/svg" xmlns:xlink="http://www.w3.org/1999/xlink" x="0px" y="0px"
	 width="500px" height="500px" viewBox="0 0 500 500" enable-background="new 0 0 500 500" xml:space="preserve">
<g>
	<g>
		<path fill="#FFFFFF" d="M287.5,224.999h-66.667c-50.601,0.059-91.607,41.065-91.667,91.667v175.001
			c0,4.602,3.731,8.333,8.333,8.333h233.334c4.602,0,8.333-3.731,8.333-8.333V316.666
			C379.107,266.064,338.102,225.059,287.5,224.999z M253.291,262.957l-10.641-21.292h23.034L255,262.94
			c-0.563,1.161-0.848,2.436-0.834,3.726c-0.002,0.34,0.021,0.68,0.067,1.017l16.158,129.309l-16.226,16.225l-16.225-16.225
			L254.1,267.699c0.049-0.343,0.07-0.688,0.066-1.033C254.166,265.379,253.865,264.109,253.291,262.957z M362.5,483.333H145.833
			V316.666c0.051-41.4,33.6-74.95,75-75h3.184l13.233,26.467L220.9,398.966c-0.319,2.552,0.557,5.106,2.375,6.926l25,25
			c3.254,3.253,8.53,3.253,11.784,0l25-25c1.817-1.819,2.693-4.374,2.375-6.926l-16.35-130.833l13.232-26.467h3.184
			c41.4,0.05,74.95,33.6,75,75V483.333L362.5,483.333z"/>
	</g>
</g>
<g>
	<g>
		<path fill="#FFFFFF" d="M337.499,16.667c-1.511,0-2.994,0.411-4.289,1.189l-36.083,21.667L260.06,2.439
			c-3.255-3.253-8.529-3.253-11.784,0l-37.067,37.067L175.126,17.84c-3.945-2.37-9.065-1.094-11.436,2.851
			c-0.781,1.3-1.193,2.79-1.19,4.307v75c0,4.602,3.731,8.333,8.333,8.333h8.333v33.333c0,41.421,33.579,75,75,75
			c41.422,0,75-33.58,75-75v-33.333h8.333c4.603,0,8.334-3.731,8.334-8.333v-75C345.833,20.396,342.102,16.666,337.499,16.667z
			 M312.5,141.665c0,32.217-26.117,58.334-58.334,58.334c-32.216,0-58.333-26.117-58.333-58.334v-33.333H312.5V141.665z
			 M329.167,91.665h-150v-51.95l29.042,17.425c3.279,1.97,7.479,1.454,10.184-1.25l35.774-35.775l35.775,35.775
			c2.705,2.704,6.904,3.22,10.184,1.25l29.042-17.425V91.665z"/>
	</g>
</g>
<g>
	<g>
		<path fill="#FFFFFF" d="M470.834,133.332c-13.807,0-25-11.193-25-25c0-4.602-3.731-8.333-8.333-8.333
			c-4.603,0-8.334,3.731-8.334,8.333c0,13.808-11.192,25-25,25c-4.602,0-8.333,3.731-8.333,8.333s3.731,8.333,8.333,8.333
			c13.808,0,25,11.193,25,25c0,4.602,3.731,8.333,8.334,8.333c4.602,0,8.333-3.731,8.333-8.333c0-13.807,11.193-25,25-25
			c4.603,0,8.334-3.731,8.334-8.333S475.437,133.332,470.834,133.332z M437.501,150.257c-2.428-3.269-5.322-6.164-8.592-8.592
			c3.269-2.428,6.164-5.322,8.592-8.592c2.428,3.269,5.321,6.164,8.592,8.592C442.824,144.093,439.929,146.988,437.501,150.257z"/>
	</g>
</g>
<g>
	<g>
		<path fill="#FFFFFF" d="M120.833,224.999c-13.808,0-25-11.193-25-25c0-4.603-3.731-8.333-8.333-8.333s-8.333,3.731-8.333,8.333
			c0,13.807-11.193,25-25,25c-4.602,0-8.333,3.731-8.333,8.333c0,4.603,3.731,8.333,8.333,8.333c13.807,0,25,11.193,25,25
			c0,4.602,3.731,8.333,8.333,8.333s8.333-3.731,8.333-8.333c0-13.808,11.193-25,25-25c4.602,0,8.333-3.731,8.333-8.333
			C129.166,228.73,125.435,224.999,120.833,224.999z M87.5,241.924c-2.428-3.269-5.322-6.164-8.592-8.592
			c3.269-2.428,6.164-5.322,8.592-8.591c2.428,3.269,5.322,6.164,8.591,8.591C92.822,235.76,89.927,238.655,87.5,241.924z"/>
	</g>
</g>
<g>
	<g>
		<path fill="#FFFFFF" d="M95.833,74.998c-13.807,0-25-11.192-25-25c0-4.602-3.731-8.333-8.333-8.333
			c-4.602,0-8.333,3.731-8.333,8.333c0,13.808-11.193,25-25,25c-4.602,0-8.333,3.731-8.333,8.333s3.731,8.333,8.333,8.333
			c13.808,0,25,11.193,25,25c0,4.602,3.731,8.333,8.333,8.333c4.603,0,8.333-3.731,8.333-8.333c0-13.807,11.193-25,25-25
			c4.602,0,8.333-3.731,8.333-8.333S100.435,74.998,95.833,74.998z M62.499,91.923c-2.428-3.269-5.322-6.164-8.591-8.592
			c3.269-2.428,6.164-5.322,8.591-8.592c2.428,3.269,5.322,6.164,8.592,8.592C67.822,85.76,64.927,88.654,62.499,91.923z"/>
	</g>
</g>
</svg>
