<?xml version="1.0" encoding="iso-8859-1"?>
<!-- Generator: Adobe Illustrator 19.0.0, SVG Export Plug-In . SVG Version: 6.00 Build 0)  -->
<svg version="1.1" id="Capa_1" xmlns="http://www.w3.org/2000/svg" xmlns:xlink="http://www.w3.org/1999/xlink" x="0px" y="0px"
	 viewBox="0 0 512 512" style="enable-background:new 0 0 512 512;" xml:space="preserve">
<g>
	<g>
		<path d="M141.771,144.188l-22.229-4.109c-1.536-0.284-2.65-1.624-2.65-3.186v-1.155C130.773,126.843,140,111.293,140,93.619V77
			c0-27.57-22.43-50-50-50S40,49.43,40,77v16.619c0,17.67,9.222,33.217,23.098,42.113v1.162c0,1.562-1.115,2.901-2.651,3.185
			l-22.219,4.108C16.077,148.282,0,167.604,0,190.131v123.203c0,5.523,4.478,10,10,10h25.169V475c0,5.523,4.478,10,10,10h89.662
			c5.522,0,10-4.477,10-10v-49.5c0-5.523-4.478-10-10-10c-5.522,0-10,4.477-10,10V465H100V303h24.831v46c0,5.523,4.478,10,10,10
			s10-4.477,10-10v-25.667H170c5.522,0,10-4.477,10-10V190.132C180,167.605,163.923,148.283,141.771,144.188z M90,47
			c13.563,0,25.052,9.046,28.751,21.422l-10.444-6.136c-4.211-2.475-9.592-1.544-12.73,2.2
			c-6.466,7.717-15.949,12.143-26.019,12.143h-9.556C60.202,60.258,73.582,47,90,47z M60.151,96.629h9.406
			c13.104,0,25.585-4.717,35.318-13.162L120,92.352v1.267c0,16.542-13.458,30-30,30C74.474,123.619,61.666,111.763,60.151,96.629z
			 M90.003,153.721l-8.557-8.267c0.315-0.794,0.603-1.602,0.831-2.434c2.518,0.392,5.097,0.598,7.723,0.598
			c2.623,0,5.199-0.206,7.714-0.597c0.228,0.835,0.517,1.644,0.833,2.44L90.003,153.721z M94.733,227.846l-4.731,5.672l-4.736-5.674
			l4.733-18.951L94.733,227.846z M80,465H55.169V303H80V465z M160,303.333h-15.169v-94.957c0-5.523-4.478-10-10-10
			c-5.522,0-10,4.477-10,10V283H55.169v-74.624c0-5.523-4.478-10-10-10c-5.522,0-10,4.477-10,10v94.957H20V190.131
			c0-12.884,9.195-23.935,21.864-26.277l22.219-4.108c0.915-0.169,1.799-0.409,2.669-0.679l12.145,11.734L64.63,227.928
			c-0.773,3.098-0.021,6.379,2.024,8.831l15.67,18.775c1.9,2.277,4.713,3.593,7.679,3.593s5.778-1.317,7.678-3.594l15.664-18.776
			c2.045-2.452,2.797-5.732,2.023-8.83L101.1,170.811l12.147-11.741c0.867,0.269,1.749,0.507,2.66,0.675l22.228,4.109
			c12.67,2.342,21.865,13.393,21.865,26.277V303.333z"/>
	</g>
</g>
<g>
	<g>
		<path d="M141.899,377.93c-1.859-1.86-4.439-2.93-7.069-2.93s-5.21,1.07-7.07,2.93s-2.93,4.44-2.93,7.07s1.069,5.21,2.93,7.07
			c1.861,1.86,4.44,2.93,7.07,2.93s5.21-1.07,7.069-2.93c1.86-1.86,2.931-4.44,2.931-7.07S143.76,379.79,141.899,377.93z"/>
	</g>
</g>
<g>
	<g>
		<path d="M297.563,102.507h-41.437c-5.522,0-10,4.477-10,10v36.591c0,5.523,4.478,10,10,10c5.522,0,10-4.477,10-10v-26.591h31.437
			c5.522,0,10-4.477,10-10S303.086,102.507,297.563,102.507z"/>
	</g>
</g>
<g>
	<g>
		<path d="M263.2,174.48c-1.86-1.86-4.44-2.93-7.07-2.93c-2.64,0-5.21,1.07-7.07,2.93c-1.87,1.86-2.93,4.44-2.93,7.07
			c0,2.64,1.06,5.21,2.93,7.07c1.86,1.86,4.43,2.93,7.07,2.93c2.63,0,5.21-1.07,7.07-2.93c1.859-1.86,2.93-4.43,2.93-7.07
			C266.13,178.92,265.06,176.34,263.2,174.48z"/>
	</g>
</g>
<g>
	<g>
		<path d="M297.563,389.493h-31.437V219.44c0-5.523-4.478-10-10-10c-5.522,0-10,4.477-10,10v26.687h-28.128c-5.522,0-10,4.477-10,10
			s4.478,10,10,10h28.128v133.366c0,5.523,4.478,10,10,10h41.437c5.522,0,10-4.477,10-10S303.086,389.493,297.563,389.493z"/>
	</g>
</g>
<g>
	<g>
		<path d="M473.02,120.113l-22.784-4.212c-1.692-0.313-2.921-1.79-2.921-3.511v-1.32C461.538,102.01,471,86.111,471,68.034V51
			c0-28.122-22.879-51-51-51c-28.121,0-51,22.878-51,51v17.034c0,18.073,9.458,33.968,23.675,43.029v1.327
			c0,1.722-1.229,3.198-2.922,3.511l-22.774,4.211C344.393,124.289,328,143.99,328,166.959V236c0,5.523,4.478,10,10,10h164
			c5.522,0,10-4.477,10-10v-69.04C512,143.991,495.606,124.289,473.02,120.113z M420,20c14.234,0,26.259,9.643,29.883,22.74
			l-11.245-6.606c-4.211-2.474-9.592-1.544-12.73,2.199C419.231,46.3,409.44,50.87,399.046,50.87H389
			C389.071,33.836,402.95,20,420,20z M389.135,70.869h9.911c13.433,0,26.222-4.857,36.174-13.548L451,66.593v1.442
			c0,17.092-13.906,30.999-31,30.999C403.863,99.034,390.572,86.638,389.135,70.869z M429.057,121.236l-9.054,8.751l-9.067-8.76
			c0.375-0.924,0.703-1.869,0.959-2.844c2.641,0.424,5.347,0.651,8.105,0.651c2.755,0,5.457-0.227,8.095-0.649
			C428.352,119.362,428.681,120.31,429.057,121.236z M492,226h-16.048v-42.774c0-5.523-4.478-10-10-10c-5.522,0-10,4.477-10,10V226
			h-71.904v-42.774c0-5.523-4.478-10-10-10c-5.522,0-10,4.477-10,10V226H348v-59.041c0-13.326,9.511-24.757,22.615-27.18
			l22.774-4.211c0.977-0.181,1.92-0.44,2.847-0.734L410,148.132v53.534c0,5.523,4.478,10,10,10c5.522,0,10-4.477,10-10V148.14
			l13.763-13.302c0.924,0.293,1.864,0.551,2.838,0.731l22.783,4.212C482.488,142.202,492,153.633,492,166.96V226z"/>
	</g>
</g>
<g>
	<g>
		<path d="M473.02,386.113l-22.784-4.212c-1.692-0.313-2.921-1.79-2.921-3.511v-1.32C461.538,368.01,471,352.111,471,334.034V317
			c0-28.122-22.879-51-51-51c-28.121,0-51,22.878-51,51v17.034c0,18.073,9.458,33.968,23.675,43.029v1.327
			c0,1.722-1.229,3.198-2.922,3.511l-22.774,4.211C344.393,390.289,328,409.99,328,432.959V502c0,5.523,4.478,10,10,10h164
			c5.522,0,10-4.477,10-10v-69.04C512,409.991,495.606,390.289,473.02,386.113z M420,286c14.234,0,26.259,9.643,29.883,22.74
			l-11.245-6.606c-4.211-2.475-9.592-1.544-12.73,2.199c-6.676,7.967-16.467,12.537-26.861,12.537H389
			C389.071,299.836,402.95,286,420,286z M389.135,336.869h9.911c13.433,0,26.222-4.857,36.174-13.548l15.78,9.271v1.442
			c0,17.093-13.906,31-31,31C403.863,365.034,390.572,352.638,389.135,336.869z M429.057,387.236l-9.054,8.751l-9.067-8.76
			c0.375-0.924,0.703-1.869,0.959-2.844c2.641,0.424,5.347,0.651,8.105,0.651c2.755,0,5.457-0.227,8.095-0.649
			C428.352,385.362,428.681,386.31,429.057,387.236z M492,492h-16.048v-42.774c0-5.523-4.478-10-10-10c-5.522,0-10,4.477-10,10V492
			h-71.904v-42.774c0-5.523-4.478-10-10-10c-5.522,0-10,4.477-10,10V492H348v-59.041c0-13.326,9.511-24.757,22.615-27.18
			l22.774-4.211c0.977-0.181,1.92-0.44,2.847-0.734L410,414.132v53.534c0,5.523,4.478,10,10,10c5.522,0,10-4.477,10-10V414.14
			l13.763-13.302c0.924,0.293,1.864,0.551,2.838,0.731l22.783,4.212C482.488,408.202,492,419.633,492,432.96V492z"/>
	</g>
</g>
<g>
</g>
<g>
</g>
<g>
</g>
<g>
</g>
<g>
</g>
<g>
</g>
<g>
</g>
<g>
</g>
<g>
</g>
<g>
</g>
<g>
</g>
<g>
</g>
<g>
</g>
<g>
</g>
<g>
</g>
</svg>
