<?xml version="1.0" encoding="utf-8"?>
<!-- Generator: Adobe Illustrator 16.0.0, SVG Export Plug-In . SVG Version: 6.00 Build 0)  -->
<!DOCTYPE svg PUBLIC "-//W3C//DTD SVG 1.1//EN" "http://www.w3.org/Graphics/SVG/1.1/DTD/svg11.dtd">
<svg version="1.1" id="Capa_1" xmlns="http://www.w3.org/2000/svg" xmlns:xlink="http://www.w3.org/1999/xlink" x="0px" y="0px"
	 width="500px" height="500px" viewBox="0 0 500 500" enable-background="new 0 0 500 500" xml:space="preserve">
<g>
	<g>
		<path fill="#FFFFFF" d="M250,149.245c-55.283,0-89.623,28.302-89.623,74.151c0,5.209,4.224,9.434,9.434,9.434h160.377
			c5.21,0,9.435-4.224,9.435-9.434C339.623,177.642,305.283,149.245,250,149.245z M179.906,213.962
			c6.226-42.359,54.623-45.849,70.094-45.849s63.868,3.49,70.095,45.849H179.906z"/>
	</g>
</g>
<g>
	<g>
		<path fill="#FFFFFF" d="M250,50.188c-24.749,0-44.812,20.063-44.812,44.812c0.052,24.728,20.084,44.759,44.812,44.812
			c24.749,0,44.812-20.063,44.812-44.812S274.749,50.188,250,50.188z M250,120.943c-14.328,0-25.943-11.616-25.943-25.943
			S235.672,69.057,250,69.057c14.328,0,25.943,11.616,25.943,25.943S264.328,120.943,250,120.943z"/>
	</g>
</g>
<g>
	<g>
		<path fill="#FFFFFF" d="M89.623,366.227C34.34,366.227,0,394.528,0,440.377c0,5.21,4.224,9.435,9.434,9.435h160.377
			c5.21,0,9.434-4.225,9.434-9.435C179.245,394.623,144.906,366.227,89.623,366.227z M19.528,430.943
			c6.227-42.358,54.528-45.85,70.094-45.85s63.868,3.491,70.094,45.85H19.528z"/>
	</g>
</g>
<g>
	<g>
		<path fill="#FFFFFF" d="M89.623,267.17c-24.749,0-44.811,20.063-44.811,44.811c0.052,24.729,20.083,44.76,44.811,44.813
			c24.749,0,44.812-20.063,44.812-44.813C134.434,287.232,114.372,267.17,89.623,267.17z M89.623,337.924
			c-14.328,0-25.943-11.615-25.943-25.943c0-14.327,11.616-25.943,25.943-25.943c14.328,0,25.943,11.616,25.943,25.943
			C115.566,326.309,103.951,337.924,89.623,337.924z"/>
	</g>
</g>
<g>
	<g>
		<path fill="#FFFFFF" d="M410.377,366.227c-55.282,0-89.622,28.302-89.622,74.15c0,5.21,4.224,9.435,9.434,9.435h160.378
			c5.21,0,9.434-4.225,9.434-9.435C500,394.623,465.66,366.227,410.377,366.227z M340.283,430.943
			c6.227-42.358,54.528-45.85,70.094-45.85c15.566,0,63.868,3.491,70.095,45.85H340.283z"/>
	</g>
</g>
<g>
	<g>
		<path fill="#FFFFFF" d="M410.377,267.17c-24.748,0-44.811,20.063-44.811,44.811c0.052,24.729,20.083,44.76,44.811,44.813
			c24.749,0,44.812-20.063,44.812-44.813C455.188,287.232,435.126,267.17,410.377,267.17z M410.377,337.924
			c-14.327,0-25.943-11.615-25.943-25.943c0-14.327,11.616-25.943,25.943-25.943c14.328,0,25.943,11.616,25.943,25.943
			C436.32,326.309,424.705,337.924,410.377,337.924z"/>
	</g>
</g>
<g>
	<g>
		<path fill="#FFFFFF" d="M298.773,349.906l-39.34-39.529v-55.66c0-5.21-4.224-9.434-9.434-9.434s-9.434,4.224-9.434,9.434v55.66
			l-39.339,39.34c-3.726,3.674-3.768,9.671-0.095,13.396c3.674,3.725,9.671,3.768,13.396,0.094L250,327.642l35.472,35.565
			c3.958,3.39,9.913,2.929,13.302-1.029C301.799,358.646,301.799,353.438,298.773,349.906z"/>
	</g>
</g>
</svg>
