<?xml version="1.0" encoding="iso-8859-1"?>
<!-- Generator: Adobe Illustrator 19.0.0, SVG Export Plug-In . SVG Version: 6.00 Build 0)  -->
<svg version="1.1" id="Layer_1" xmlns="http://www.w3.org/2000/svg" xmlns:xlink="http://www.w3.org/1999/xlink" x="0px" y="0px"
	 viewBox="0 0 512 512" style="enable-background:new 0 0 512 512;" xml:space="preserve">
<g>
	<g>
		<g>
			<path d="M457.728,1.977c-1.86-1.553-4.292-2.219-6.69-1.894c-2.389,0.35-4.531,1.698-5.871,3.712l-34.133,51.2
				c-0.93,1.399-1.434,3.055-1.434,4.736v76.8H34.133C15.309,136.531,0,151.84,0,170.664c0,18.825,15.309,34.133,34.133,34.133H51.2
				v68.267H8.533c-4.71,0-8.533,3.823-8.533,8.533v51.2c0,4.71,3.823,8.533,8.533,8.533h102.4c4.71,0,8.533-3.823,8.533-8.533v-51.2
				c0-4.71-3.823-8.533-8.533-8.533H93.867c-4.71,0-8.533,3.823-8.533,8.533s3.823,8.533,8.533,8.533h8.533v34.133H17.067v-34.133
				h42.667c4.71,0,8.533-3.823,8.533-8.533v-76.8H204.8v41.472l-66.167,231.595h-27.699c-4.71,0-8.533,3.823-8.533,8.533v17.067
				c0,4.71,3.823,8.533,8.533,8.533s8.533-3.823,8.533-8.533v-8.533h25.574h0.026h0.026h221.815h0.026h0.026h25.574v8.533
				c0,4.71,3.823,8.533,8.533,8.533s8.533-3.823,8.533-8.533v-17.067c0-4.71-3.823-8.533-8.533-8.533h-27.699L307.2,246.269v-41.472
				h109.201l72.525,30.746c-9.045,45.773-26.129,72.038-35.533,83.558l-26.726-40.09v-48.614c0-4.71-3.823-8.533-8.533-8.533
				s-8.533,3.823-8.533,8.533v51.2c0,1.681,0.503,3.337,1.434,4.736l32.7,49.05v116.881c0,4.71,3.823,8.533,8.533,8.533
				c4.71,0,8.533-3.823,8.533-8.533V336.475c11.563-11.639,51.2-59.281,51.2-165.811C512,48.603,459.947,3.82,457.728,1.977z
				 M426.667,62.316l26.726-40.081c9.412,11.537,26.487,37.803,35.533,83.55l-62.259,26.394V62.316z M156.382,477.864l27.878-97.596
				l55.851,35.541l-59.52,37.871c-3.977,2.526-5.146,7.808-2.62,11.785c1.63,2.551,4.395,3.951,7.211,3.951
				c1.57,0,3.157-0.427,4.574-1.331L256,425.922l81.621,51.942H156.382z M352.555,467.129L189.158,363.15l19.43-68.019
				l31.923,21.086l-31.881,21.052c-3.934,2.594-5.018,7.893-2.415,11.827c1.638,2.483,4.352,3.823,7.125,3.823
				c1.613,0,3.243-0.452,4.693-1.408L256,326.44l61.116,40.354l-40.277,25.634c-3.968,2.534-5.146,7.799-2.611,11.785
				c1.63,2.551,4.386,3.951,7.202,3.951c1.57,0,3.157-0.435,4.582-1.34l41.728-26.556L352.555,467.129z M318.259,347.099
				l-104.755-69.18l8.03-28.109c0.222-0.768,0.333-1.553,0.333-2.347v-42.667h68.267v42.667c0,0.794,0.111,1.579,0.333,2.347
				l8.03,28.109l-21.299,14.071c-3.934,2.594-5.009,7.893-2.415,11.819c1.638,2.492,4.352,3.831,7.125,3.831
				c1.613,0,3.251-0.452,4.693-1.408l16.811-11.102L318.259,347.099z M426.667,190.606v-11.409c0-4.71-3.823-8.533-8.533-8.533
				s-8.533,3.823-8.533,8.533v8.533H34.133c-9.412,0-17.067-7.654-17.067-17.067c0-9.412,7.654-17.067,17.067-17.067h384
				c1.178,0,2.304-0.239,3.328-0.674l70.349-29.815c1.937,14.234,3.123,29.995,3.123,47.556c0,17.562-1.186,33.323-3.123,47.556
				L426.667,190.606z"/>
			<path d="M59.989,162.131h-0.085c-4.71,0-8.491,3.823-8.491,8.533c0,4.71,3.866,8.533,8.576,8.533
				c4.719,0,8.533-3.823,8.533-8.533C68.523,165.954,64.708,162.131,59.989,162.131z"/>
			<path d="M256.256,162.131h-0.085c-4.71,0-8.491,3.823-8.491,8.533c0,4.71,3.866,8.533,8.576,8.533
				c4.719,0,8.533-3.823,8.533-8.533C264.789,165.954,260.975,162.131,256.256,162.131z"/>
		</g>
	</g>
</g>
<g>
</g>
<g>
</g>
<g>
</g>
<g>
</g>
<g>
</g>
<g>
</g>
<g>
</g>
<g>
</g>
<g>
</g>
<g>
</g>
<g>
</g>
<g>
</g>
<g>
</g>
<g>
</g>
<g>
</g>
</svg>
