<?xml version="1.0" encoding="utf-8"?>
<!-- Generator: Adobe Illustrator 16.0.0, SVG Export Plug-In . SVG Version: 6.00 Build 0)  -->
<!DOCTYPE svg PUBLIC "-//W3C//DTD SVG 1.1//EN" "http://www.w3.org/Graphics/SVG/1.1/DTD/svg11.dtd">
<svg version="1.1" id="Capa_1" xmlns="http://www.w3.org/2000/svg" xmlns:xlink="http://www.w3.org/1999/xlink" x="0px" y="0px"
	 width="500px" height="500px" viewBox="0 0 500 500" enable-background="new 0 0 500 500" xml:space="preserve">
<g>
	<g>
		<path fill="#FFFFFF" d="M171.863,232.424c1.298,1.038,2.476,2.217,3.515,3.515c3.067,3.823,8.653,4.437,12.477,1.369
			c2.11-1.693,3.333-4.256,3.322-6.96v-67.009c0-4.901-3.973-8.875-8.875-8.875c-0.03,0-0.06,0-0.089,0h-49.524
			c2.055-4.89,3.111-10.141,3.106-15.443c-1.044-22.229-19.911-39.403-42.141-38.359c-20.767,0.975-37.384,17.591-38.359,38.359
			c-0.004,5.303,1.052,10.554,3.106,15.443H8.875c-4.901,0-8.875,3.974-8.875,8.875v67.098c-0.021,4.901,3.936,8.892,8.838,8.913
			c2.705,0.011,5.267-1.211,6.96-3.322c7.745-9.749,21.925-11.373,31.674-3.628c9.749,7.745,11.373,21.926,3.628,31.675
			c-7.745,9.748-21.926,11.372-31.674,3.627c-1.343-1.066-2.561-2.284-3.627-3.627c-3.068-3.824-8.654-4.438-12.477-1.369
			c-2.11,1.692-3.333,4.256-3.322,6.96v67.098c0,4.901,3.974,8.876,8.875,8.876h48.726c-7.423,20.979,3.567,44.004,24.546,51.427
			c20.979,7.423,44.004-3.566,51.427-24.546c3.077-8.695,3.077-18.185,0-26.88H182.3c4.901,0,8.875-3.974,8.875-8.876v-67.186
			c0.021-4.902-3.937-8.893-8.838-8.914c-2.705-0.011-5.268,1.212-6.96,3.322c-7.745,9.686-21.875,11.26-31.561,3.514
			c-9.685-7.744-11.259-21.874-3.515-31.56C148.047,226.253,162.178,224.68,171.863,232.424z M154.112,290.256
			c1.259,0.059,2.521,0.059,3.781,0c5.304,0.012,10.556-1.044,15.443-3.106v40.649h-55.737c-4.901,0.02-8.858,4.011-8.837,8.912
			c0.01,2.354,0.954,4.607,2.625,6.265c8.857,8.75,8.945,23.022,0.195,31.88c-8.75,8.858-23.022,8.945-31.88,0.195
			c-8.857-8.75-8.945-23.022-0.195-31.88c0.064-0.065,0.129-0.131,0.195-0.195c3.48-3.451,3.504-9.071,0.052-12.552
			c-1.657-1.671-3.911-2.615-6.264-2.625H17.751v-40.649c4.888,2.061,10.139,3.116,15.443,3.106
			c22.229-1.044,39.403-19.91,38.359-42.14c-0.975-20.768-17.591-37.384-38.359-38.359c-5.304-0.01-10.555,1.047-15.443,3.106
			v-40.649h58.222c4.9-0.125,8.771-4.198,8.647-9.097c-0.066-2.614-1.281-5.066-3.322-6.701
			c-9.749-7.745-11.373-21.925-3.627-31.674c7.745-9.749,21.925-11.373,31.674-3.628c9.749,7.745,11.373,21.926,3.628,31.674
			c-1.067,1.343-2.285,2.561-3.628,3.627c-3.823,3.068-4.437,8.654-1.369,12.477c1.693,2.11,4.256,3.333,6.96,3.322h58.223
			l0.177,40.649c-4.887-2.063-10.139-3.119-15.443-3.106c-22.229-1.044-41.096,16.13-42.14,38.359
			C114.708,270.346,131.883,289.212,154.112,290.256z"/>
	</g>
</g>
<g>
	<g>
		<g>
			<path fill="#FFFFFF" d="M473.134,210.999c-4.328-1.531-8.886-2.313-13.478-2.308c-4.566-0.001-9.099,0.78-13.402,2.308v-48.726
				c0-4.901-3.974-8.875-8.875-8.875h-67.098c-4.902,0.039-8.844,4.045-8.805,8.946c0.021,2.619,1.197,5.094,3.213,6.763
				c9.768,7.721,11.428,21.897,3.708,31.665c-7.721,9.768-21.897,11.428-31.666,3.708c-9.768-7.721-11.428-21.897-3.707-31.666
				c1.087-1.375,2.332-2.62,3.707-3.708c3.823-3.067,4.437-8.653,1.369-12.477c-1.692-2.11-4.256-3.333-6.96-3.322h-67.098
				c-4.902,0-8.876,3.974-8.876,8.875v49.525c-4.888-2.059-10.139-3.117-15.443-3.106c-22.229,1.044-39.403,19.911-38.359,42.14
				c0.975,20.768,17.591,37.384,38.359,38.359c5.304,0.008,10.555-1.049,15.443-3.105v49.524c0,4.901,3.974,8.875,8.876,8.875
				h67.275c4.901-0.001,8.874-3.976,8.873-8.878c-0.002-3.131-1.653-6.031-4.347-7.63c-9.368-8.201-10.314-22.444-2.114-31.812
				c8.201-9.368,22.444-10.314,31.813-2.113c9.367,8.2,10.313,22.441,2.113,31.811c-0.901,1.03-1.895,1.976-2.967,2.824
				c-3.823,3.067-4.437,8.653-1.369,12.477c1.693,2.109,4.256,3.332,6.961,3.321h67.098c4.901,0,8.875-3.974,8.875-8.875v-48.548
				c20.979,7.422,44.004-3.567,51.428-24.547C505.104,241.447,494.114,218.422,473.134,210.999z M475.329,265.14
				c-4.185,4.179-9.849,6.539-15.762,6.567l0.089-0.266c-6.004,0.014-11.761-2.385-15.977-6.656
				c-3.451-3.48-9.071-3.504-12.552-0.053c-1.671,1.658-2.614,3.91-2.625,6.264v55.738h-40.737
				c2.108-4.938,3.194-10.252,3.194-15.621c-1.044-22.229-19.91-39.403-42.14-38.359c-20.768,0.975-37.385,17.591-38.359,38.359
				c-0.005,5.303,1.052,10.554,3.106,15.443h-40.649V268.6c0.021-4.9-3.937-8.892-8.838-8.912c-2.705-0.012-5.268,1.211-6.961,3.321
				c-7.744,9.748-21.925,11.372-31.673,3.628c-9.749-7.745-11.373-21.926-3.628-31.674c7.745-9.749,21.925-11.373,31.674-3.628
				c1.344,1.067,2.561,2.284,3.627,3.628c3.068,3.823,8.654,4.437,12.477,1.369c2.111-1.693,3.334-4.256,3.322-6.96v-58.223h40.649
				c-2.12,4.966-3.208,10.31-3.195,15.709c-1.044,22.229,16.13,41.096,38.359,42.14s41.097-16.13,42.141-38.359
				c0.059-1.259,0.059-2.521,0-3.781c0.004-5.303-1.052-10.554-3.106-15.443h40.648v55.737c0.021,4.902,4.011,8.859,8.914,8.838
				c2.353-0.01,4.607-0.954,6.264-2.625c8.774-8.764,22.991-8.755,31.756,0.019C484.111,242.158,484.104,256.375,475.329,265.14z"/>
			<path fill="#FFFFFF" d="M459.656,208.691L459.656,208.691L459.656,208.691z"/>
		</g>
	</g>
</g>
</svg>
