<?xml version="1.0" encoding="utf-8"?>
<!-- Generator: Adobe Illustrator 16.0.0, SVG Export Plug-In . SVG Version: 6.00 Build 0)  -->
<!DOCTYPE svg PUBLIC "-//W3C//DTD SVG 1.1//EN" "http://www.w3.org/Graphics/SVG/1.1/DTD/svg11.dtd">
<svg version="1.1" id="Capa_1" xmlns="http://www.w3.org/2000/svg" xmlns:xlink="http://www.w3.org/1999/xlink" x="0px" y="0px"
	 width="500px" height="500px" viewBox="0 0 500 500" enable-background="new 0 0 500 500" xml:space="preserve">
<g>
	<g>
		<path fill="#FFFFFF" d="M138.838,275c-23.011,0-41.667,18.655-41.667,41.666c0,23.012,18.655,41.668,41.667,41.668
			c23-0.027,41.64-18.668,41.667-41.668C180.505,293.655,161.85,275,138.838,275z M138.838,341.666c-13.807,0-25-11.191-25-25
			c0-13.807,11.193-25,25-25c13.808,0,25,11.193,25,25C163.838,330.475,152.646,341.666,138.838,341.666z"/>
	</g>
</g>
<g>
	<g>
		<path fill="#FFFFFF" d="M269.947,373.967l-40.759-58.242c-7.464-10.634-22.136-13.203-32.771-5.739
			c-10.443,7.329-13.14,21.647-6.08,32.272l16.267,24.408H71.072l16.267-24.408c7.19-10.821,4.245-25.422-6.577-32.611
			c-10.626-7.061-24.943-4.363-32.272,6.078L7.73,373.967c-8.593,12.282-5.601,29.205,6.681,37.798
			c4.559,3.189,9.988,4.901,15.552,4.902h58.875v75c0,4.602,3.731,8.333,8.333,8.333h83.333c4.602,0,8.333-3.731,8.333-8.333v-75
			h58.875c14.99-0.004,27.138-12.158,27.136-27.148C274.848,383.954,273.137,378.525,269.947,373.967z M253.767,398.105
			c-1.774,1.241-3.889,1.904-6.053,1.895h-67.208c-4.602,0-8.333,3.731-8.333,8.333v75h-66.667v-75c0-4.602-3.731-8.333-8.333-8.333
			H29.963c-5.785,0.001-10.476-4.688-10.478-10.472c-0.001-2.151,0.661-4.249,1.895-6.012l40.792-58.241
			c2.138-3.127,6.406-3.93,9.533-1.792c3.127,2.138,3.929,6.406,1.792,9.533l-24.925,37.358c-2.554,3.828-1.522,9.003,2.308,11.557
			c1.37,0.914,2.979,1.402,4.626,1.402h166.667c4.602,0,8.334-3.73,8.334-8.333c0-1.647-0.488-3.257-1.401-4.626l-24.9-37.358
			c-2.137-3.127-1.335-7.396,1.792-9.533c3.127-2.138,7.396-1.335,9.533,1.792l40.808,58.241
			C259.657,388.256,258.506,394.787,253.767,398.105z"/>
	</g>
</g>
<g>
	<g>
		<path fill="#FFFFFF" d="M155.505,125h-25c-13.808,0-25,11.193-25,25h16.667c0-4.602,3.731-8.333,8.333-8.333h25
			c4.602,0,8.333,3.731,8.333,8.333s-3.731,8.333-8.333,8.333c-13.808,0-25,11.192-25,25h16.667c0-4.602,3.731-8.333,8.333-8.333
			c13.807,0,25-11.193,25-25S169.313,125,155.505,125z"/>
	</g>
</g>
<g>
	<g>
		<rect x="130.505" y="191.667" fill="#FFFFFF" width="16.667" height="16.667"/>
	</g>
</g>
<g>
	<g>
		<path fill="#FFFFFF" d="M138.838,91.667c-50.542,0-91.667,33.642-91.667,75c0,33.7,27.208,62.967,66.558,72.075l18.442,24.592
			c2.761,3.682,7.984,4.428,11.667,1.666c0.631-0.475,1.193-1.035,1.667-1.666l18.441-24.592
			c39.35-9.108,66.559-38.375,66.559-72.075C230.505,125.309,189.38,91.667,138.838,91.667z M157.497,223.092
			c-1.998,0.408-3.777,1.535-5,3.167l-13.659,18.183l-13.642-18.183c-1.223-1.632-3.002-2.758-5-3.167
			c-33.191-6.659-56.358-29.858-56.358-56.425c0-32.158,33.642-58.333,75-58.333c41.358,0,75,26.175,75,58.333
			C213.838,193.233,190.672,216.433,157.497,223.092z"/>
	</g>
</g>
<g>
	<g>
		<path fill="#FFFFFF" d="M380.505,166.667c-23,0.027-41.64,18.667-41.666,41.667c0,23.011,18.655,41.667,41.666,41.667
			c23.012,0,41.667-18.655,41.667-41.667C422.172,185.322,403.517,166.667,380.505,166.667z M380.505,233.333
			c-13.807,0-25-11.193-25-25c0-13.808,11.193-25,25-25c13.808,0,25,11.192,25,25C405.505,222.141,394.313,233.333,380.505,233.333z
			"/>
	</g>
</g>
<g>
	<g>
		<path fill="#FFFFFF" d="M430.505,0h-100c-23,0.027-41.64,18.667-41.667,41.667v50c0.027,23,18.667,41.64,41.667,41.667h21.55
			l22.559,22.558c3.254,3.253,8.529,3.253,11.783,0l22.559-22.558h21.55c23-0.027,41.64-18.667,41.667-41.667v-50
			C472.145,18.667,453.505,0.027,430.505,0z M455.505,91.667c0,13.808-11.192,25-25,25h-25c-2.21,0-4.329,0.879-5.892,2.442
			l-19.108,19.108l-19.108-19.108c-1.563-1.563-3.681-2.442-5.892-2.442h-25c-13.807,0-24.999-11.192-24.999-25v-50
			c0-13.807,11.192-25,24.999-25h100c13.808,0,25,11.193,25,25V91.667z"/>
	</g>
</g>
<g>
	<g>
		<path fill="#FFFFFF" d="M476.339,225.333c-13.614-2.301-26.516,6.87-28.817,20.483c-0.233,1.383-0.351,2.781-0.35,4.184v8.334
			H313.839v-40.775c0.156-12.439-8.619-23.205-20.833-25.559c-13.614-2.301-26.516,6.87-28.817,20.483
			c-0.233,1.382-0.351,2.781-0.351,4.183v41.667c0.027,27.603,22.397,49.973,50.001,50h16.666v40.933l-19.791,112.167
			c-3.068,17.892,8.95,34.882,26.842,37.95c17.892,3.067,34.882-8.95,37.949-26.842l5-30.176l5,30.184
			c3.07,17.883,20.056,29.891,37.938,26.821c17.883-3.07,29.891-20.056,26.821-37.938l-19.759-112.167v-40.933h16.667
			c27.604-0.027,49.973-22.397,50-50v-7.442C497.328,238.453,488.553,227.688,476.339,225.333z M480.505,258.334
			c0,18.408-14.924,33.332-33.333,33.332h-25c-4.602,0-8.333,3.732-8.333,8.334v50c-0.001,0.486,0.042,0.972,0.133,1.45
			l19.917,112.883c1.56,8.806-4.315,17.208-13.121,18.767c-8.805,1.56-17.207-4.315-18.767-13.12
			c-0.011-0.057-0.02-0.114-0.029-0.171l-13.25-79.509c-0.768-4.537-5.068-7.595-9.606-6.827c-3.496,0.592-6.235,3.33-6.826,6.827
			l-13.25,79.5c-1.415,8.83-9.721,14.841-18.55,13.426c-8.83-1.414-14.841-9.72-13.426-18.549c0.019-0.114,0.037-0.229,0.059-0.344
			l19.916-112.883c0.091-0.479,0.136-0.964,0.134-1.45v-50c0-4.602-3.731-8.334-8.333-8.334h-25
			c-18.409,0-33.333-14.924-33.333-33.332v-41.667c-0.003-4.602,3.727-8.335,8.33-8.336c0.49,0,0.979,0.043,1.461,0.128
			c4.16,1.018,7.033,4.82,6.875,9.1v40.775c0,9.205,7.461,16.666,16.667,16.666h133.333c9.205,0,16.667-7.461,16.667-16.666V250
			c-0.001-2.449,1.075-4.774,2.941-6.358c1.89-1.615,4.404-2.295,6.85-1.85c4.161,1.018,7.034,4.82,6.875,9.1V258.334z"/>
	</g>
</g>
<g>
	<g>
		<path fill="#FFFFFF" d="M419.935,35.775c-3.198-3.31-8.474-3.402-11.783-0.204c-0.07,0.067-0.138,0.135-0.204,0.204
			l-44.108,44.108l-10.775-10.775c-3.311-3.198-8.585-3.106-11.783,0.204c-3.12,3.229-3.12,8.35,0,11.579l16.667,16.667
			c3.254,3.253,8.528,3.253,11.783,0l50-50C423.041,44.36,423.132,39.085,419.935,35.775z"/>
	</g>
</g>
</svg>
