<?xml version="1.0" encoding="iso-8859-1"?>
<!-- Generator: Adobe Illustrator 19.0.0, SVG Export Plug-In . SVG Version: 6.00 Build 0)  -->
<svg version="1.1" id="Capa_1" xmlns="http://www.w3.org/2000/svg" xmlns:xlink="http://www.w3.org/1999/xlink" x="0px" y="0px"
	 viewBox="0 0 512 512" style="enable-background:new 0 0 512 512;" xml:space="preserve">
<g>
	<g>
		<path d="M174,334H63.988c-5.523,0-10,4.478-10,10c0,5.522,4.477,10,10,10H174c5.523,0,10-4.478,10-10
			C184,338.478,179.523,334,174,334z"/>
	</g>
</g>
<g>
	<g>
		<path d="M242,334h-28.255c-5.523,0-10,4.478-10,10c0,5.522,4.477,10,10,10H242c5.523,0,10-4.478,10-10
			C252,338.478,247.523,334,242,334z"/>
	</g>
</g>
<g>
	<g>
		<path d="M202.875,378H63.988c-5.523,0-10,4.478-10,10c0,5.522,4.477,10,10,10h138.887c5.523,0,10-4.478,10-10
			C212.875,382.478,208.398,378,202.875,378z"/>
	</g>
</g>
<g>
	<g>
		<path d="M239.842,422H63.988c-5.523,0-10,4.478-10,10c0,5.522,4.477,10,10,10h175.854c5.523,0,10-4.478,10-10
			C249.842,426.478,245.365,422,239.842,422z"/>
	</g>
</g>
<g>
	<g>
		<path d="M246.91,380.931c-1.86-1.86-4.44-2.93-7.07-2.93s-5.21,1.069-7.07,2.93c-1.86,1.86-2.93,4.44-2.93,7.07
			s1.07,5.21,2.93,7.069c1.86,1.86,4.44,2.931,7.07,2.931c2.64-0.001,5.21-1.071,7.07-2.931c1.86-1.859,2.93-4.439,2.93-7.069
			S248.77,382.791,246.91,380.931z"/>
	</g>
</g>
<g>
	<g>
		<path d="M158.767,290H63.988c-5.523,0-10,4.478-10,10c0,5.522,4.477,10,10,10h94.779c5.523,0,10-4.478,10-10
			C168.767,294.478,164.29,290,158.767,290z"/>
	</g>
</g>
<g>
	<g>
		<path d="M220.81,292.93c-1.86-1.86-4.44-2.93-7.07-2.93s-5.21,1.07-7.07,2.93c-1.86,1.86-2.93,4.44-2.93,7.07
			s1.07,5.21,2.93,7.069c1.86,1.86,4.44,2.931,7.07,2.931s5.21-1.07,7.07-2.931c1.86-1.859,2.93-4.439,2.93-7.069
			S222.67,294.79,220.81,292.93z"/>
	</g>
</g>
<g>
	<g>
		<path d="M211.5,54h-127C67.682,54,54,67.683,54,84.5v127c0,16.11,12.558,29.335,28.398,30.42c0.398,0.048,0.801,0.081,1.212,0.081
			c0.1,0,128.68,0,128.78,0c0.411,0,0.814-0.032,1.212-0.081C229.442,240.835,242,227.61,242,211.5v-127
			C242,67.683,228.318,54,211.5,54z M95.698,222c2.822-5.832,8.283-10.213,15.003-11.455l13.733-2.539L133.186,222H95.698z
			 M130.958,147.372c10.921,0,21.341-3.791,29.616-10.604l10.77,6.327v8.44c0,12.872-10.472,23.345-23.345,23.345
			c-12.873,0-23.345-10.473-23.345-23.345v-4.163H130.958z M124.738,127.371C125.744,115.419,135.792,106,148,106
			c8.858,0,16.58,4.959,20.535,12.247l-4.431-2.603c-4.211-2.477-9.594-1.544-12.73,2.199c-5.075,6.056-12.516,9.528-20.416,9.528
			H124.738z M148.002,207.973l-6.832-10.925c0.486-0.813,0.917-1.66,1.3-2.533c1.813,0.232,3.655,0.365,5.53,0.365
			c1.872,0,3.712-0.133,5.522-0.364c0.384,0.875,0.817,1.724,1.305,2.54L148.002,207.973z M162.82,222l8.747-13.993l13.732,2.539
			c6.719,1.242,12.18,5.623,15.003,11.454H162.82z M222,211.5c0,2.248-0.716,4.328-1.924,6.038
			c-4.747-13.505-16.405-23.934-31.142-26.658l-15.098-2.792c-0.184-0.034-0.358-0.09-0.526-0.158
			c-0.222-0.166-0.447-0.329-0.687-0.479c-0.068-0.043-0.14-0.075-0.209-0.116c-0.002-0.002-0.003-0.003-0.005-0.005
			c11.422-7.814,18.935-20.942,18.935-35.795v-14.163v-6.553v-1.475C191.345,105.445,171.9,86,148,86
			c-23.9,0-43.345,19.444-43.345,43.345v1.475v6.553v14.163c0,14.851,7.511,27.978,18.93,35.792
			c-0.006,0.006-0.012,0.012-0.018,0.018c-0.063,0.038-0.129,0.068-0.192,0.107c-0.233,0.146-0.452,0.306-0.669,0.467
			c-0.175,0.073-0.357,0.134-0.55,0.17l-15.091,2.79c-14.737,2.725-26.394,13.154-31.141,26.659c-1.207-1.71-1.924-3.79-1.924-6.038
			V84.5C74,78.71,78.71,74,84.5,74h127c5.79,0,10.5,4.71,10.5,10.5V211.5z"/>
	</g>
</g>
<g>
	<g>
		<path d="M473.925,348.218C498.478,323.664,512,291.019,512,256.294c0-34.725-13.522-67.37-38.076-91.924
			s-57.2-38.076-91.924-38.076c-0.668,0-1.334,0.014-2.001,0.024v-25.331c0-2.652-1.054-5.196-2.93-7.071l-91-90.987
			C284.195,1.054,281.652,0,279,0H10C4.477,0,0,4.478,0,10v492c0,5.522,4.477,10,10,10h363.667c5.523,0,10-4.478,10-10
			c0-5.522-4.477-10-10-10H358.49v-35.846h47.021V502c0,5.522,4.477,10,10,10c5.522,0,10-4.478,10-10l0.001-89.125
			c0-2.652-1.054-5.195-2.929-7.071c-0.914-0.914-1.989-1.629-3.156-2.126c-0.013-0.005-0.025-0.012-0.038-0.018
			c-0.237-0.1-0.48-0.184-0.724-0.265c-0.07-0.023-0.136-0.052-0.207-0.074c-0.229-0.071-0.462-0.125-0.696-0.179
			c-0.088-0.02-0.173-0.048-0.262-0.066c-0.275-0.056-0.553-0.094-0.833-0.127c-0.051-0.006-0.1-0.017-0.151-0.022
			c-0.332-0.034-0.668-0.051-1.005-0.051h-0.013H392v-16.961C422.957,383.575,451.743,370.4,473.925,348.218z M289,34.14L345.868,91
			H289V34.14z M348.491,402.876L348.491,402.876c-5.523-0.001-10,4.477-10,9.999L338.49,492H20V20h249v81c0,5.522,4.477,10,10,10h81
			v17.141c-26.357,4.467-50.637,16.943-69.923,36.229c-24.554,24.554-38.076,57.199-38.076,91.924s13.522,67.37,38.076,91.924
			c22.181,22.181,50.968,35.357,81.924,37.697v16.961H348.491z M405.512,422.876v13.279h-47.021v-13.279H405.512z M382.001,366.294
			c-29.382,0-57.006-11.442-77.782-32.219c-20.776-20.775-32.218-48.399-32.218-77.781s11.442-57.006,32.218-77.781
			c20.776-20.776,48.399-32.219,77.782-32.219c29.382,0,57.005,11.443,77.782,32.219C480.559,199.288,492,226.912,492,256.294
			s-11.442,57.006-32.218,77.781C439.006,354.851,411.383,366.294,382.001,366.294z"/>
	</g>
</g>
<g>
	<g>
		<path d="M444.227,194.069c-34.312-34.311-90.141-34.31-124.452,0c-34.311,34.311-34.311,90.139,0,124.451
			c17.156,17.155,39.691,25.733,62.226,25.733c22.535,0,45.07-8.578,62.226-25.733C478.538,284.208,478.538,228.38,444.227,194.069z
			 M430.083,304.377c-26.513,26.515-69.654,26.513-96.167,0c-26.512-26.512-26.512-69.653,0.001-96.166
			c13.258-13.259,30.668-19.885,48.083-19.885c17.411,0,34.828,6.63,48.083,19.885C456.596,234.724,456.596,277.864,430.083,304.377
			z"/>
	</g>
</g>
<g>
	<g>
		<path d="M343.474,246c-5.523,0-10,4.478-10,10c0,5.522,4.478,10,10.001,10h0.083c5.523,0,9.958-4.478,9.958-10
			C353.516,250.478,348.997,246,343.474,246z"/>
	</g>
</g>
<g>
	<g>
		<path d="M383.945,246c-5.523,0-10,4.478-10,10c0,5.522,4.478,10,10.001,10h0.083c5.523,0,9.958-4.478,9.958-10
			C393.987,250.478,389.468,246,383.945,246z"/>
	</g>
</g>
<g>
	<g>
		<path d="M424.416,246c-5.523,0-10,4.478-10,10c0,5.522,4.478,10,10.001,10h0.083c5.523,0,9.958-4.478,9.958-10
			C434.458,250.478,429.939,246,424.416,246z"/>
	</g>
</g>
<g>
</g>
<g>
</g>
<g>
</g>
<g>
</g>
<g>
</g>
<g>
</g>
<g>
</g>
<g>
</g>
<g>
</g>
<g>
</g>
<g>
</g>
<g>
</g>
<g>
</g>
<g>
</g>
<g>
</g>
</svg>
