<?xml version="1.0" encoding="iso-8859-1"?>
<!-- Generator: Adobe Illustrator 19.0.0, SVG Export Plug-In . SVG Version: 6.00 Build 0)  -->
<svg version="1.1" id="Capa_1" xmlns="http://www.w3.org/2000/svg" xmlns:xlink="http://www.w3.org/1999/xlink" x="0px" y="0px"
	 viewBox="0 0 480 480" style="enable-background:new 0 0 480 480;" xml:space="preserve">
<g>
	<g>
		<path d="M480,208V48c0-4.418-3.582-8-8-8H248c-4.418,0-8,3.582-8,8v160c0,4.418,3.582,8,8,8h69.76l-4,16h-97.968
			c-5.981-7.975-14.732-13.42-24.528-15.264C187.766,197.793,171.263,184.034,152,184h-16
			c-19.263,0.034-35.766,13.793-39.264,32.736C86.94,218.58,78.189,224.025,72.208,232H8c-4.418,0-8,3.582-8,8v192
			c0,4.418,3.582,8,8,8s8-3.582,8-8V280h48v16h-8c-13.255,0-24,10.745-24,24v16c0,13.255,10.745,24,24,24h64v24c0,4.418,3.582,8,8,8
			h8v16H96c-4.418,0-8,3.582-8,8v16c0,4.418,3.582,8,8,8s8-3.582,8-8v-8h32v8c0,4.418,3.582,8,8,8s8-3.582,8-8v-8h32v8
			c0,4.418,3.582,8,8,8s8-3.582,8-8v-16c0-4.418-3.582-8-8-8h-40v-16h8c4.418,0,8-3.582,8-8v-24h64c13.255,0,24-10.745,24-24v-16
			c0-13.255-10.745-24-24-24h-8v-16h240v152c0,4.418,3.582,8,8,8s8-3.582,8-8V240c0-4.418-3.582-8-8-8h-65.76l-4-16H472
			C476.418,216,480,212.418,480,208z M64,344h-8c-4.418,0-8-3.582-8-8v-16c0-4.418,3.582-8,8-8h8V344z M64,256v8H16v-16h48.8
			C64.265,250.633,63.997,253.313,64,256z M136,200h16c10.168,0.012,19.229,6.418,22.632,16h-61.264
			C116.771,206.418,125.832,200.012,136,200z M152,376h-16v-16h16V376z M208,344H80v-40v-48c0-13.255,10.745-24,24-24h80
			c13.255,0,24,10.745,24,24V344z M232,312c4.418,0,8,3.582,8,8v16c0,4.418-3.582,8-8,8h-8v-32H232z M464,248v16H224v-8
			c0.003-2.687-0.265-5.367-0.8-8H464z M330.248,232l4-16h51.504l4,16H330.248z M464,200H256v-16h208V200z M464,168H256V56h208V168z
			"/>
	</g>
</g>
<g>
	<g>
		<path d="M144,96c-22.091,0-40,17.909-40,40s17.909,40,40,40s40-17.909,40-40C183.974,113.92,166.08,96.026,144,96z M144,160
			c-13.255,0-24-10.745-24-24s10.745-24,24-24s24,10.745,24,24S157.255,160,144,160z"/>
	</g>
</g>
<g>
</g>
<g>
</g>
<g>
</g>
<g>
</g>
<g>
</g>
<g>
</g>
<g>
</g>
<g>
</g>
<g>
</g>
<g>
</g>
<g>
</g>
<g>
</g>
<g>
</g>
<g>
</g>
<g>
</g>
</svg>
